<mxfile host="app.diagrams.net" modified="2023-11-14T22:19:58.199Z" agent="Mozilla/5.0 (Windows NT 10.0; Win64; x64) AppleWebKit/537.36 (KHTML, like Gecko) Chrome/119.0.0.0 Safari/537.36" etag="bkxnT2eXDwWk3uvF9MDd" version="22.1.1" type="device" pages="4">
  <diagram name="Page-1" id="GVTmwhyxzCX2jt7-Oep0">
    <mxGraphModel dx="1900" dy="566" grid="1" gridSize="10" guides="1" tooltips="1" connect="1" arrows="1" fold="1" page="1" pageScale="1" pageWidth="850" pageHeight="1100" math="0" shadow="0">
      <root>
        <mxCell id="0" />
        <mxCell id="1" parent="0" />
        <mxCell id="pYiRY6UZxmE6Dapsuv52-4" value="ID" style="ellipse;whiteSpace=wrap;html=1;align=center;fontStyle=4;fillColor=#ffe6cc;strokeColor=#d79b00;" vertex="1" parent="1">
          <mxGeometry x="30" y="40" width="80" height="40" as="geometry" />
        </mxCell>
        <mxCell id="pYiRY6UZxmE6Dapsuv52-6" value="address" style="ellipse;whiteSpace=wrap;html=1;align=center;fillColor=#ffe6cc;strokeColor=#d79b00;" vertex="1" parent="1">
          <mxGeometry x="-80" y="40" width="90" height="40" as="geometry" />
        </mxCell>
        <mxCell id="pYiRY6UZxmE6Dapsuv52-7" value="contact no" style="ellipse;whiteSpace=wrap;html=1;align=center;fillColor=#ffe6cc;strokeColor=#d79b00;" vertex="1" parent="1">
          <mxGeometry x="-180" y="40" width="90" height="40" as="geometry" />
        </mxCell>
        <mxCell id="pYiRY6UZxmE6Dapsuv52-10" value="Office" style="whiteSpace=wrap;html=1;align=center;fillColor=#d5e8d4;strokeColor=#82b366;" vertex="1" parent="1">
          <mxGeometry x="-90" y="120" width="100" height="40" as="geometry" />
        </mxCell>
        <mxCell id="pYiRY6UZxmE6Dapsuv52-11" value="" style="endArrow=none;html=1;rounded=0;entryX=0.295;entryY=1.07;entryDx=0;entryDy=0;entryPerimeter=0;exitX=1;exitY=0;exitDx=0;exitDy=0;" edge="1" parent="1" source="pYiRY6UZxmE6Dapsuv52-10" target="pYiRY6UZxmE6Dapsuv52-4">
          <mxGeometry relative="1" as="geometry">
            <mxPoint x="90" y="100" as="sourcePoint" />
            <mxPoint x="170.80000000000018" y="49.99999999999996" as="targetPoint" />
          </mxGeometry>
        </mxCell>
        <mxCell id="pYiRY6UZxmE6Dapsuv52-13" value="" style="endArrow=none;html=1;rounded=0;" edge="1" parent="1" target="pYiRY6UZxmE6Dapsuv52-10">
          <mxGeometry relative="1" as="geometry">
            <mxPoint x="-40" y="80" as="sourcePoint" />
            <mxPoint x="55" y="110" as="targetPoint" />
          </mxGeometry>
        </mxCell>
        <mxCell id="pYiRY6UZxmE6Dapsuv52-14" value="" style="endArrow=none;html=1;rounded=0;exitX=0.5;exitY=1;exitDx=0;exitDy=0;entryX=0;entryY=0;entryDx=0;entryDy=0;" edge="1" parent="1" source="pYiRY6UZxmE6Dapsuv52-7" target="pYiRY6UZxmE6Dapsuv52-10">
          <mxGeometry relative="1" as="geometry">
            <mxPoint x="-70.59999999999991" y="69.99999999999997" as="sourcePoint" />
            <mxPoint x="-90" y="137.6" as="targetPoint" />
          </mxGeometry>
        </mxCell>
        <mxCell id="pYiRY6UZxmE6Dapsuv52-15" value="Owner" style="whiteSpace=wrap;html=1;align=center;fillColor=#d5e8d4;strokeColor=#82b366;" vertex="1" parent="1">
          <mxGeometry x="310" y="120" width="120" height="40" as="geometry" />
        </mxCell>
        <mxCell id="pYiRY6UZxmE6Dapsuv52-17" value="national ID" style="ellipse;whiteSpace=wrap;html=1;align=center;fontStyle=4;fillColor=#ffe6cc;strokeColor=#d79b00;" vertex="1" parent="1">
          <mxGeometry x="440" y="40" width="80" height="40" as="geometry" />
        </mxCell>
        <mxCell id="pYiRY6UZxmE6Dapsuv52-18" value="full name" style="ellipse;whiteSpace=wrap;html=1;align=center;fillColor=#ffe6cc;strokeColor=#d79b00;" vertex="1" parent="1">
          <mxGeometry x="345" y="40" width="80" height="40" as="geometry" />
        </mxCell>
        <mxCell id="pYiRY6UZxmE6Dapsuv52-20" value="bank account number" style="ellipse;whiteSpace=wrap;html=1;align=center;fillColor=#ffe6cc;strokeColor=#d79b00;" vertex="1" parent="1">
          <mxGeometry x="250" y="40" width="80" height="40" as="geometry" />
        </mxCell>
        <mxCell id="pYiRY6UZxmE6Dapsuv52-21" value="" style="endArrow=none;html=1;rounded=0;exitX=0.645;exitY=1.05;exitDx=0;exitDy=0;exitPerimeter=0;entryX=0.127;entryY=-0.06;entryDx=0;entryDy=0;entryPerimeter=0;" edge="1" parent="1" source="pYiRY6UZxmE6Dapsuv52-20" target="pYiRY6UZxmE6Dapsuv52-15">
          <mxGeometry relative="1" as="geometry">
            <mxPoint x="370" y="100" as="sourcePoint" />
            <mxPoint x="450" y="100" as="targetPoint" />
          </mxGeometry>
        </mxCell>
        <mxCell id="pYiRY6UZxmE6Dapsuv52-27" value="" style="endArrow=none;html=1;rounded=0;exitX=1;exitY=0;exitDx=0;exitDy=0;entryX=0.5;entryY=1;entryDx=0;entryDy=0;" edge="1" parent="1" target="pYiRY6UZxmE6Dapsuv52-17">
          <mxGeometry relative="1" as="geometry">
            <mxPoint x="430" y="120" as="sourcePoint" />
            <mxPoint x="490" y="70" as="targetPoint" />
          </mxGeometry>
        </mxCell>
        <mxCell id="pYiRY6UZxmE6Dapsuv52-28" value="car" style="whiteSpace=wrap;html=1;align=center;fillColor=#d5e8d4;strokeColor=#82b366;" vertex="1" parent="1">
          <mxGeometry x="650" y="300" width="100" height="40" as="geometry" />
        </mxCell>
        <mxCell id="pYiRY6UZxmE6Dapsuv52-32" value="ID" style="ellipse;whiteSpace=wrap;html=1;align=center;fontStyle=4;fillColor=#ffe6cc;strokeColor=#d79b00;" vertex="1" parent="1">
          <mxGeometry x="760" y="210" width="70" height="40" as="geometry" />
        </mxCell>
        <mxCell id="pYiRY6UZxmE6Dapsuv52-34" value="rent value" style="ellipse;whiteSpace=wrap;html=1;align=center;fillColor=#ffe6cc;strokeColor=#d79b00;" vertex="1" parent="1">
          <mxGeometry x="660" y="210" width="80" height="40" as="geometry" />
        </mxCell>
        <mxCell id="pYiRY6UZxmE6Dapsuv52-35" value="car statue" style="ellipse;whiteSpace=wrap;html=1;align=center;fillColor=#ffe6cc;strokeColor=#d79b00;" vertex="1" parent="1">
          <mxGeometry x="560" y="210" width="80" height="40" as="geometry" />
        </mxCell>
        <mxCell id="pYiRY6UZxmE6Dapsuv52-36" value="image license" style="ellipse;whiteSpace=wrap;html=1;align=center;fillColor=#ffe6cc;strokeColor=#d79b00;" vertex="1" parent="1">
          <mxGeometry x="810" y="300" width="80" height="40" as="geometry" />
        </mxCell>
        <mxCell id="pYiRY6UZxmE6Dapsuv52-37" value="model" style="ellipse;whiteSpace=wrap;html=1;align=center;fillColor=#ffe6cc;strokeColor=#d79b00;" vertex="1" parent="1">
          <mxGeometry x="720" y="360" width="80" height="40" as="geometry" />
        </mxCell>
        <mxCell id="pYiRY6UZxmE6Dapsuv52-38" value="brand" style="ellipse;whiteSpace=wrap;html=1;align=center;fillColor=#ffe6cc;strokeColor=#d79b00;" vertex="1" parent="1">
          <mxGeometry x="710" y="470" width="80" height="40" as="geometry" />
        </mxCell>
        <mxCell id="pYiRY6UZxmE6Dapsuv52-40" value="model year" style="ellipse;whiteSpace=wrap;html=1;align=center;fillColor=#ffe6cc;strokeColor=#d79b00;" vertex="1" parent="1">
          <mxGeometry x="790" y="440" width="80" height="40" as="geometry" />
        </mxCell>
        <mxCell id="pYiRY6UZxmE6Dapsuv52-42" value="model name" style="ellipse;whiteSpace=wrap;html=1;align=center;fillColor=#ffe6cc;strokeColor=#d79b00;" vertex="1" parent="1">
          <mxGeometry x="650" y="430" width="80" height="40" as="geometry" />
        </mxCell>
        <mxCell id="pYiRY6UZxmE6Dapsuv52-45" value="" style="endArrow=none;html=1;rounded=0;" edge="1" parent="1">
          <mxGeometry relative="1" as="geometry">
            <mxPoint x="700" y="430" as="sourcePoint" />
            <mxPoint x="726" y="396" as="targetPoint" />
          </mxGeometry>
        </mxCell>
        <mxCell id="pYiRY6UZxmE6Dapsuv52-47" value="" style="endArrow=none;html=1;rounded=0;entryX=1;entryY=0.75;entryDx=0;entryDy=0;entryPerimeter=0;" edge="1" parent="1" target="pYiRY6UZxmE6Dapsuv52-37">
          <mxGeometry relative="1" as="geometry">
            <mxPoint x="820" y="440" as="sourcePoint" />
            <mxPoint x="736" y="406" as="targetPoint" />
          </mxGeometry>
        </mxCell>
        <mxCell id="pYiRY6UZxmE6Dapsuv52-50" value="" style="endArrow=none;html=1;rounded=0;entryX=0.5;entryY=1;entryDx=0;entryDy=0;exitX=0.635;exitY=-0.04;exitDx=0;exitDy=0;exitPerimeter=0;" edge="1" parent="1" source="pYiRY6UZxmE6Dapsuv52-38" target="pYiRY6UZxmE6Dapsuv52-37">
          <mxGeometry relative="1" as="geometry">
            <mxPoint x="760" y="460" as="sourcePoint" />
            <mxPoint x="880" y="410" as="targetPoint" />
          </mxGeometry>
        </mxCell>
        <mxCell id="pYiRY6UZxmE6Dapsuv52-52" value="" style="endArrow=none;html=1;rounded=0;exitX=0.76;exitY=1.02;exitDx=0;exitDy=0;exitPerimeter=0;entryX=0;entryY=0;entryDx=0;entryDy=0;" edge="1" parent="1" source="pYiRY6UZxmE6Dapsuv52-35" target="pYiRY6UZxmE6Dapsuv52-28">
          <mxGeometry relative="1" as="geometry">
            <mxPoint x="620" y="340" as="sourcePoint" />
            <mxPoint x="780" y="340" as="targetPoint" />
          </mxGeometry>
        </mxCell>
        <mxCell id="pYiRY6UZxmE6Dapsuv52-57" value="" style="endArrow=none;html=1;rounded=0;" edge="1" parent="1" target="pYiRY6UZxmE6Dapsuv52-28">
          <mxGeometry relative="1" as="geometry">
            <mxPoint x="700" y="250" as="sourcePoint" />
            <mxPoint x="780" y="340" as="targetPoint" />
          </mxGeometry>
        </mxCell>
        <mxCell id="pYiRY6UZxmE6Dapsuv52-58" value="" style="endArrow=none;html=1;rounded=0;entryX=1;entryY=0;entryDx=0;entryDy=0;exitX=0.5;exitY=1;exitDx=0;exitDy=0;" edge="1" parent="1" source="pYiRY6UZxmE6Dapsuv52-32" target="pYiRY6UZxmE6Dapsuv52-28">
          <mxGeometry relative="1" as="geometry">
            <mxPoint x="790" y="260" as="sourcePoint" />
            <mxPoint x="780" y="340" as="targetPoint" />
          </mxGeometry>
        </mxCell>
        <mxCell id="pYiRY6UZxmE6Dapsuv52-59" value="" style="endArrow=none;html=1;rounded=0;entryX=0;entryY=0.5;entryDx=0;entryDy=0;" edge="1" parent="1" target="pYiRY6UZxmE6Dapsuv52-36">
          <mxGeometry relative="1" as="geometry">
            <mxPoint x="750" y="320" as="sourcePoint" />
            <mxPoint x="780" y="340" as="targetPoint" />
          </mxGeometry>
        </mxCell>
        <mxCell id="pYiRY6UZxmE6Dapsuv52-61" value="" style="endArrow=none;html=1;rounded=0;exitX=1;exitY=1;exitDx=0;exitDy=0;entryX=0.5;entryY=0;entryDx=0;entryDy=0;" edge="1" parent="1" source="pYiRY6UZxmE6Dapsuv52-28" target="pYiRY6UZxmE6Dapsuv52-37">
          <mxGeometry relative="1" as="geometry">
            <mxPoint x="620" y="340" as="sourcePoint" />
            <mxPoint x="780" y="359" as="targetPoint" />
          </mxGeometry>
        </mxCell>
        <mxCell id="pYiRY6UZxmE6Dapsuv52-62" value="" style="endArrow=none;html=1;rounded=0;exitX=0.563;exitY=1;exitDx=0;exitDy=0;exitPerimeter=0;" edge="1" parent="1" source="pYiRY6UZxmE6Dapsuv52-18">
          <mxGeometry relative="1" as="geometry">
            <mxPoint x="385" y="80" as="sourcePoint" />
            <mxPoint x="390" y="120" as="targetPoint" />
          </mxGeometry>
        </mxCell>
        <mxCell id="pYiRY6UZxmE6Dapsuv52-63" value="tenant" style="whiteSpace=wrap;html=1;align=center;fillColor=#d5e8d4;strokeColor=#82b366;" vertex="1" parent="1">
          <mxGeometry x="260" y="300" width="100" height="40" as="geometry" />
        </mxCell>
        <mxCell id="pYiRY6UZxmE6Dapsuv52-64" value="national ID" style="ellipse;whiteSpace=wrap;html=1;align=center;fontStyle=4;fillColor=#ffe6cc;strokeColor=#d79b00;" vertex="1" parent="1">
          <mxGeometry x="355" y="230" width="70" height="40" as="geometry" />
        </mxCell>
        <mxCell id="pYiRY6UZxmE6Dapsuv52-65" value="" style="endArrow=none;html=1;rounded=0;entryX=1;entryY=0;entryDx=0;entryDy=0;" edge="1" parent="1" target="pYiRY6UZxmE6Dapsuv52-63">
          <mxGeometry relative="1" as="geometry">
            <mxPoint x="380" y="270" as="sourcePoint" />
            <mxPoint x="345" y="310" as="targetPoint" />
          </mxGeometry>
        </mxCell>
        <mxCell id="pYiRY6UZxmE6Dapsuv52-66" value="mobile number" style="ellipse;whiteSpace=wrap;html=1;align=center;fillColor=#ffe6cc;strokeColor=#d79b00;" vertex="1" parent="1">
          <mxGeometry x="275" y="230" width="70" height="40" as="geometry" />
        </mxCell>
        <mxCell id="pYiRY6UZxmE6Dapsuv52-69" value="" style="endArrow=none;html=1;rounded=0;exitX=0.5;exitY=1;exitDx=0;exitDy=0;" edge="1" parent="1" source="pYiRY6UZxmE6Dapsuv52-66" target="pYiRY6UZxmE6Dapsuv52-63">
          <mxGeometry relative="1" as="geometry">
            <mxPoint x="290" y="290" as="sourcePoint" />
            <mxPoint x="290" y="330" as="targetPoint" />
          </mxGeometry>
        </mxCell>
        <mxCell id="pYiRY6UZxmE6Dapsuv52-70" value="driving license" style="ellipse;whiteSpace=wrap;html=1;align=center;fillColor=#ffe6cc;strokeColor=#d79b00;" vertex="1" parent="1">
          <mxGeometry x="190" y="240" width="70" height="40" as="geometry" />
        </mxCell>
        <mxCell id="pYiRY6UZxmE6Dapsuv52-71" value="" style="endArrow=none;html=1;rounded=0;exitX=0.731;exitY=1.07;exitDx=0;exitDy=0;exitPerimeter=0;entryX=0;entryY=0;entryDx=0;entryDy=0;" edge="1" parent="1" source="pYiRY6UZxmE6Dapsuv52-70" target="pYiRY6UZxmE6Dapsuv52-63">
          <mxGeometry relative="1" as="geometry">
            <mxPoint x="631" y="261" as="sourcePoint" />
            <mxPoint x="660" y="310" as="targetPoint" />
          </mxGeometry>
        </mxCell>
        <mxCell id="pYiRY6UZxmE6Dapsuv52-72" value="Rent transaction" style="shape=rhombus;perimeter=rhombusPerimeter;whiteSpace=wrap;html=1;align=center;fillColor=#dae8fc;strokeColor=#6c8ebf;" vertex="1" parent="1">
          <mxGeometry x="-90" y="290" width="120" height="60" as="geometry" />
        </mxCell>
        <mxCell id="pYiRY6UZxmE6Dapsuv52-73" value="start date" style="ellipse;whiteSpace=wrap;html=1;align=center;fillColor=#ffe6cc;strokeColor=#d79b00;" vertex="1" parent="1">
          <mxGeometry x="30" y="230" width="80" height="40" as="geometry" />
        </mxCell>
        <mxCell id="pYiRY6UZxmE6Dapsuv52-74" value="End date" style="ellipse;whiteSpace=wrap;html=1;align=center;fillColor=#ffe6cc;strokeColor=#d79b00;" vertex="1" parent="1">
          <mxGeometry x="10" y="370" width="80" height="40" as="geometry" />
        </mxCell>
        <mxCell id="pYiRY6UZxmE6Dapsuv52-76" value="Transaction ID" style="ellipse;whiteSpace=wrap;html=1;align=center;fontStyle=4;fillColor=#ffe6cc;strokeColor=#d79b00;" vertex="1" parent="1">
          <mxGeometry x="-100" y="230" width="80" height="40" as="geometry" />
        </mxCell>
        <mxCell id="pYiRY6UZxmE6Dapsuv52-82" value="" style="endArrow=none;html=1;rounded=0;entryX=0.5;entryY=1;entryDx=0;entryDy=0;exitX=1;exitY=0.5;exitDx=0;exitDy=0;" edge="1" parent="1" source="pYiRY6UZxmE6Dapsuv52-72" target="pYiRY6UZxmE6Dapsuv52-73">
          <mxGeometry relative="1" as="geometry">
            <mxPoint x="10" y="270" as="sourcePoint" />
            <mxPoint x="80" y="270" as="targetPoint" />
          </mxGeometry>
        </mxCell>
        <mxCell id="pYiRY6UZxmE6Dapsuv52-83" value="" style="endArrow=none;html=1;rounded=0;entryX=0.5;entryY=0;entryDx=0;entryDy=0;exitX=1;exitY=0.5;exitDx=0;exitDy=0;" edge="1" parent="1" source="pYiRY6UZxmE6Dapsuv52-72" target="pYiRY6UZxmE6Dapsuv52-74">
          <mxGeometry relative="1" as="geometry">
            <mxPoint x="40" y="300" as="sourcePoint" />
            <mxPoint x="90" y="270" as="targetPoint" />
          </mxGeometry>
        </mxCell>
        <mxCell id="pYiRY6UZxmE6Dapsuv52-85" value="" style="edgeStyle=entityRelationEdgeStyle;fontSize=12;html=1;endArrow=ERoneToMany;startArrow=ERzeroToOne;rounded=0;exitX=1;exitY=0.5;exitDx=0;exitDy=0;entryX=0;entryY=0.5;entryDx=0;entryDy=0;" edge="1" parent="1" source="pYiRY6UZxmE6Dapsuv52-99" target="pYiRY6UZxmE6Dapsuv52-15">
          <mxGeometry width="100" height="100" relative="1" as="geometry">
            <mxPoint x="120" y="190" as="sourcePoint" />
            <mxPoint x="220" y="90" as="targetPoint" />
          </mxGeometry>
        </mxCell>
        <mxCell id="pYiRY6UZxmE6Dapsuv52-86" value="" style="edgeStyle=entityRelationEdgeStyle;fontSize=12;html=1;endArrow=ERoneToMany;startArrow=ERmandOne;rounded=0;entryX=0;entryY=0.5;entryDx=0;entryDy=0;" edge="1" parent="1" target="pYiRY6UZxmE6Dapsuv52-28">
          <mxGeometry width="100" height="100" relative="1" as="geometry">
            <mxPoint x="430" y="140" as="sourcePoint" />
            <mxPoint x="530" y="40" as="targetPoint" />
          </mxGeometry>
        </mxCell>
        <mxCell id="pYiRY6UZxmE6Dapsuv52-87" value="" style="edgeStyle=entityRelationEdgeStyle;fontSize=12;html=1;endArrow=ERoneToMany;startArrow=ERmandOne;rounded=0;entryX=0;entryY=0.75;entryDx=0;entryDy=0;" edge="1" parent="1" target="pYiRY6UZxmE6Dapsuv52-28">
          <mxGeometry width="100" height="100" relative="1" as="geometry">
            <mxPoint x="360" y="330" as="sourcePoint" />
            <mxPoint x="640" y="330" as="targetPoint" />
          </mxGeometry>
        </mxCell>
        <mxCell id="pYiRY6UZxmE6Dapsuv52-91" value="" style="edgeStyle=entityRelationEdgeStyle;fontSize=12;html=1;endArrow=ERmandOne;rounded=0;" edge="1" parent="1" source="pYiRY6UZxmE6Dapsuv52-72">
          <mxGeometry width="100" height="100" relative="1" as="geometry">
            <mxPoint x="-40" y="319" as="sourcePoint" />
            <mxPoint x="260" y="319" as="targetPoint" />
          </mxGeometry>
        </mxCell>
        <mxCell id="pYiRY6UZxmE6Dapsuv52-93" value="" style="edgeStyle=entityRelationEdgeStyle;fontSize=12;html=1;endArrow=ERoneToMany;rounded=0;" edge="1" parent="1">
          <mxGeometry width="100" height="100" relative="1" as="geometry">
            <mxPoint x="-240" y="140" as="sourcePoint" />
            <mxPoint x="-90" y="139.5" as="targetPoint" />
          </mxGeometry>
        </mxCell>
        <mxCell id="pYiRY6UZxmE6Dapsuv52-94" value="" style="endArrow=none;html=1;rounded=0;" edge="1" parent="1">
          <mxGeometry relative="1" as="geometry">
            <mxPoint x="-240" y="320" as="sourcePoint" />
            <mxPoint x="-240" y="140" as="targetPoint" />
          </mxGeometry>
        </mxCell>
        <mxCell id="pYiRY6UZxmE6Dapsuv52-95" value="" style="endArrow=none;html=1;rounded=0;entryX=0;entryY=0.5;entryDx=0;entryDy=0;" edge="1" parent="1" target="pYiRY6UZxmE6Dapsuv52-72">
          <mxGeometry relative="1" as="geometry">
            <mxPoint x="-240" y="320" as="sourcePoint" />
            <mxPoint x="20" y="340" as="targetPoint" />
          </mxGeometry>
        </mxCell>
        <mxCell id="pYiRY6UZxmE6Dapsuv52-98" value="" style="endArrow=none;html=1;rounded=0;entryX=0.5;entryY=0;entryDx=0;entryDy=0;exitX=0.5;exitY=1;exitDx=0;exitDy=0;" edge="1" parent="1" source="pYiRY6UZxmE6Dapsuv52-76" target="pYiRY6UZxmE6Dapsuv52-72">
          <mxGeometry relative="1" as="geometry">
            <mxPoint x="-90" y="270" as="sourcePoint" />
            <mxPoint x="-30" y="280" as="targetPoint" />
          </mxGeometry>
        </mxCell>
        <mxCell id="pYiRY6UZxmE6Dapsuv52-100" value="" style="edgeStyle=entityRelationEdgeStyle;fontSize=12;html=1;endArrow=ERoneToMany;startArrow=ERzeroToOne;rounded=0;exitX=1;exitY=0.5;exitDx=0;exitDy=0;entryX=0;entryY=0.5;entryDx=0;entryDy=0;" edge="1" parent="1" source="pYiRY6UZxmE6Dapsuv52-10" target="pYiRY6UZxmE6Dapsuv52-99">
          <mxGeometry width="100" height="100" relative="1" as="geometry">
            <mxPoint x="10" y="140" as="sourcePoint" />
            <mxPoint x="310" y="140" as="targetPoint" />
          </mxGeometry>
        </mxCell>
        <mxCell id="pYiRY6UZxmE6Dapsuv52-99" value="Renting" style="shape=rhombus;perimeter=rhombusPerimeter;whiteSpace=wrap;html=1;align=center;fillColor=#dae8fc;strokeColor=#6c8ebf;" vertex="1" parent="1">
          <mxGeometry x="80" y="100" width="120" height="60" as="geometry" />
        </mxCell>
        <mxCell id="pYiRY6UZxmE6Dapsuv52-102" value="" style="endArrow=none;html=1;rounded=0;exitX=0;exitY=1;exitDx=0;exitDy=0;" edge="1" parent="1" source="pYiRY6UZxmE6Dapsuv52-72">
          <mxGeometry relative="1" as="geometry">
            <mxPoint x="-60" y="340" as="sourcePoint" />
            <mxPoint x="-80" y="370" as="targetPoint" />
          </mxGeometry>
        </mxCell>
        <mxCell id="pYiRY6UZxmE6Dapsuv52-103" value="payment methode" style="ellipse;whiteSpace=wrap;html=1;align=center;fillColor=#ffe6cc;strokeColor=#d79b00;" vertex="1" parent="1">
          <mxGeometry x="-120" y="370" width="80" height="40" as="geometry" />
        </mxCell>
      </root>
    </mxGraphModel>
  </diagram>
  <diagram id="YbLproos8-PdupYeS8lL" name="Page-2">
    <mxGraphModel dx="1050" dy="566" grid="1" gridSize="10" guides="1" tooltips="1" connect="1" arrows="1" fold="1" page="1" pageScale="1" pageWidth="850" pageHeight="1100" math="0" shadow="0">
      <root>
        <mxCell id="0" />
        <mxCell id="1" parent="0" />
        <mxCell id="0vQWfCygWxKNDygSlcsi-1" value="medical analysis laboratory" style="whiteSpace=wrap;html=1;fontSize=18;" vertex="1" parent="1">
          <mxGeometry x="305" y="40" width="265" height="60" as="geometry" />
        </mxCell>
        <mxCell id="0vQWfCygWxKNDygSlcsi-2" value="Branch" style="whiteSpace=wrap;html=1;align=center;fillColor=#d5e8d4;strokeColor=#82b366;" vertex="1" parent="1">
          <mxGeometry x="110" y="200" width="100" height="40" as="geometry" />
        </mxCell>
        <mxCell id="0vQWfCygWxKNDygSlcsi-3" value="Code" style="ellipse;whiteSpace=wrap;html=1;align=center;fontStyle=4;fillColor=#fff2cc;strokeColor=#d6b656;" vertex="1" parent="1">
          <mxGeometry x="235" y="140" width="70" height="30" as="geometry" />
        </mxCell>
        <mxCell id="0vQWfCygWxKNDygSlcsi-4" value="short name" style="ellipse;whiteSpace=wrap;html=1;align=center;fillColor=#fff2cc;strokeColor=#d6b656;" vertex="1" parent="1">
          <mxGeometry x="27.5" y="150" width="70" height="30" as="geometry" />
        </mxCell>
        <mxCell id="0vQWfCygWxKNDygSlcsi-9" value="" style="endArrow=none;html=1;rounded=0;exitX=1;exitY=0;exitDx=0;exitDy=0;entryX=0.374;entryY=0.92;entryDx=0;entryDy=0;entryPerimeter=0;" edge="1" parent="1" source="0vQWfCygWxKNDygSlcsi-2" target="0vQWfCygWxKNDygSlcsi-3">
          <mxGeometry relative="1" as="geometry">
            <mxPoint x="340" y="290" as="sourcePoint" />
            <mxPoint x="500" y="290" as="targetPoint" />
          </mxGeometry>
        </mxCell>
        <mxCell id="0vQWfCygWxKNDygSlcsi-10" value="" style="endArrow=none;html=1;rounded=0;exitX=0;exitY=0;exitDx=0;exitDy=0;entryX=0.663;entryY=0.947;entryDx=0;entryDy=0;entryPerimeter=0;" edge="1" parent="1" source="0vQWfCygWxKNDygSlcsi-2" target="0vQWfCygWxKNDygSlcsi-4">
          <mxGeometry relative="1" as="geometry">
            <mxPoint x="340" y="290" as="sourcePoint" />
            <mxPoint x="90" y="180" as="targetPoint" />
          </mxGeometry>
        </mxCell>
        <mxCell id="0vQWfCygWxKNDygSlcsi-17" value="Street" style="ellipse;whiteSpace=wrap;html=1;align=center;fillColor=#fff2cc;strokeColor=#d6b656;" vertex="1" parent="1">
          <mxGeometry x="140" y="80" width="50" height="30" as="geometry" />
        </mxCell>
        <mxCell id="0vQWfCygWxKNDygSlcsi-19" value="Floor number" style="ellipse;whiteSpace=wrap;html=1;align=center;fillColor=#fff2cc;strokeColor=#d6b656;" vertex="1" parent="1">
          <mxGeometry x="190" y="90" width="60" height="30" as="geometry" />
        </mxCell>
        <mxCell id="0vQWfCygWxKNDygSlcsi-21" value="Test" style="whiteSpace=wrap;html=1;align=center;fillColor=#d5e8d4;strokeColor=#82b366;" vertex="1" parent="1">
          <mxGeometry x="580" y="200" width="100" height="40" as="geometry" />
        </mxCell>
        <mxCell id="0vQWfCygWxKNDygSlcsi-22" value="Code" style="ellipse;whiteSpace=wrap;html=1;align=center;fontStyle=4;fillColor=#fff2cc;strokeColor=#d6b656;" vertex="1" parent="1">
          <mxGeometry x="670" y="140" width="70" height="30" as="geometry" />
        </mxCell>
        <mxCell id="0vQWfCygWxKNDygSlcsi-23" value="Cost" style="ellipse;whiteSpace=wrap;html=1;align=center;fillColor=#fff2cc;strokeColor=#d6b656;" vertex="1" parent="1">
          <mxGeometry x="595" y="140" width="70" height="30" as="geometry" />
        </mxCell>
        <mxCell id="0vQWfCygWxKNDygSlcsi-24" value="Name" style="ellipse;whiteSpace=wrap;html=1;align=center;fillColor=#fff2cc;strokeColor=#d6b656;" vertex="1" parent="1">
          <mxGeometry x="510" y="140" width="70" height="30" as="geometry" />
        </mxCell>
        <mxCell id="0vQWfCygWxKNDygSlcsi-25" value="" style="endArrow=none;html=1;rounded=0;exitX=0.5;exitY=1;exitDx=0;exitDy=0;entryX=1;entryY=0;entryDx=0;entryDy=0;" edge="1" parent="1" source="0vQWfCygWxKNDygSlcsi-22" target="0vQWfCygWxKNDygSlcsi-21">
          <mxGeometry relative="1" as="geometry">
            <mxPoint x="340" y="290" as="sourcePoint" />
            <mxPoint x="500" y="290" as="targetPoint" />
          </mxGeometry>
        </mxCell>
        <mxCell id="0vQWfCygWxKNDygSlcsi-26" value="" style="endArrow=none;html=1;rounded=0;exitX=0.5;exitY=1;exitDx=0;exitDy=0;" edge="1" parent="1" source="0vQWfCygWxKNDygSlcsi-23" target="0vQWfCygWxKNDygSlcsi-21">
          <mxGeometry relative="1" as="geometry">
            <mxPoint x="340" y="290" as="sourcePoint" />
            <mxPoint x="500" y="290" as="targetPoint" />
          </mxGeometry>
        </mxCell>
        <mxCell id="0vQWfCygWxKNDygSlcsi-27" value="" style="endArrow=none;html=1;rounded=0;exitX=0.5;exitY=1;exitDx=0;exitDy=0;entryX=0;entryY=0;entryDx=0;entryDy=0;" edge="1" parent="1" source="0vQWfCygWxKNDygSlcsi-24" target="0vQWfCygWxKNDygSlcsi-21">
          <mxGeometry relative="1" as="geometry">
            <mxPoint x="340" y="290" as="sourcePoint" />
            <mxPoint x="500" y="290" as="targetPoint" />
          </mxGeometry>
        </mxCell>
        <mxCell id="0vQWfCygWxKNDygSlcsi-28" value="Patient" style="whiteSpace=wrap;html=1;align=center;fillColor=#d5e8d4;strokeColor=#82b366;" vertex="1" parent="1">
          <mxGeometry x="1120" y="200" width="100" height="40" as="geometry" />
        </mxCell>
        <mxCell id="0vQWfCygWxKNDygSlcsi-29" value="patient ID" style="ellipse;whiteSpace=wrap;html=1;align=center;fontStyle=4;fillColor=#fff2cc;strokeColor=#d6b656;" vertex="1" parent="1">
          <mxGeometry x="1220" y="130" width="70" height="30" as="geometry" />
        </mxCell>
        <mxCell id="0vQWfCygWxKNDygSlcsi-30" value="Full name" style="ellipse;whiteSpace=wrap;html=1;align=center;fillColor=#fff2cc;strokeColor=#d6b656;" vertex="1" parent="1">
          <mxGeometry x="1135" y="130" width="70" height="30" as="geometry" />
        </mxCell>
        <mxCell id="0vQWfCygWxKNDygSlcsi-31" value="Date of birth" style="ellipse;whiteSpace=wrap;html=1;align=center;fillColor=#fff2cc;strokeColor=#d6b656;" vertex="1" parent="1">
          <mxGeometry x="1040" y="130" width="70" height="30" as="geometry" />
        </mxCell>
        <mxCell id="0vQWfCygWxKNDygSlcsi-32" value="Mobile" style="ellipse;shape=doubleEllipse;margin=3;whiteSpace=wrap;html=1;align=center;fillColor=#fff2cc;strokeColor=#d6b656;" vertex="1" parent="1">
          <mxGeometry x="1250" y="200" width="50" height="30" as="geometry" />
        </mxCell>
        <mxCell id="0vQWfCygWxKNDygSlcsi-33" value="Age" style="ellipse;whiteSpace=wrap;html=1;align=center;dashed=1;fillColor=#fff2cc;strokeColor=#d6b656;" vertex="1" parent="1">
          <mxGeometry x="1225" y="255" width="55" height="25" as="geometry" />
        </mxCell>
        <mxCell id="0vQWfCygWxKNDygSlcsi-34" value="Gender" style="ellipse;whiteSpace=wrap;html=1;align=center;fillColor=#fff2cc;strokeColor=#d6b656;" vertex="1" parent="1">
          <mxGeometry x="1160" y="260" width="60" height="30" as="geometry" />
        </mxCell>
        <mxCell id="0vQWfCygWxKNDygSlcsi-35" value="Diseases" style="ellipse;whiteSpace=wrap;html=1;align=center;fillColor=#fff2cc;strokeColor=#d6b656;" vertex="1" parent="1">
          <mxGeometry x="1080" y="260" width="70" height="30" as="geometry" />
        </mxCell>
        <mxCell id="0vQWfCygWxKNDygSlcsi-36" value="" style="endArrow=none;html=1;rounded=0;exitX=0.5;exitY=1;exitDx=0;exitDy=0;entryX=1;entryY=0;entryDx=0;entryDy=0;" edge="1" parent="1" source="0vQWfCygWxKNDygSlcsi-29" target="0vQWfCygWxKNDygSlcsi-28">
          <mxGeometry relative="1" as="geometry">
            <mxPoint x="830" y="180" as="sourcePoint" />
            <mxPoint x="990" y="180" as="targetPoint" />
          </mxGeometry>
        </mxCell>
        <mxCell id="0vQWfCygWxKNDygSlcsi-37" value="" style="endArrow=none;html=1;rounded=0;exitX=0.5;exitY=1;exitDx=0;exitDy=0;entryX=0.5;entryY=0;entryDx=0;entryDy=0;" edge="1" parent="1" source="0vQWfCygWxKNDygSlcsi-30" target="0vQWfCygWxKNDygSlcsi-28">
          <mxGeometry relative="1" as="geometry">
            <mxPoint x="830" y="180" as="sourcePoint" />
            <mxPoint x="990" y="180" as="targetPoint" />
          </mxGeometry>
        </mxCell>
        <mxCell id="0vQWfCygWxKNDygSlcsi-38" value="" style="endArrow=none;html=1;rounded=0;exitX=0.657;exitY=1.12;exitDx=0;exitDy=0;exitPerimeter=0;entryX=0;entryY=0;entryDx=0;entryDy=0;" edge="1" parent="1" source="0vQWfCygWxKNDygSlcsi-31" target="0vQWfCygWxKNDygSlcsi-28">
          <mxGeometry relative="1" as="geometry">
            <mxPoint x="830" y="180" as="sourcePoint" />
            <mxPoint x="990" y="180" as="targetPoint" />
          </mxGeometry>
        </mxCell>
        <mxCell id="0vQWfCygWxKNDygSlcsi-39" value="" style="endArrow=none;html=1;rounded=0;exitX=0;exitY=0.5;exitDx=0;exitDy=0;" edge="1" parent="1" source="0vQWfCygWxKNDygSlcsi-32" target="0vQWfCygWxKNDygSlcsi-28">
          <mxGeometry relative="1" as="geometry">
            <mxPoint x="830" y="180" as="sourcePoint" />
            <mxPoint x="990" y="180" as="targetPoint" />
          </mxGeometry>
        </mxCell>
        <mxCell id="0vQWfCygWxKNDygSlcsi-40" value="" style="endArrow=none;html=1;rounded=0;exitX=0;exitY=0;exitDx=0;exitDy=0;entryX=1;entryY=1;entryDx=0;entryDy=0;" edge="1" parent="1" source="0vQWfCygWxKNDygSlcsi-33" target="0vQWfCygWxKNDygSlcsi-28">
          <mxGeometry relative="1" as="geometry">
            <mxPoint x="830" y="180" as="sourcePoint" />
            <mxPoint x="990" y="180" as="targetPoint" />
          </mxGeometry>
        </mxCell>
        <mxCell id="0vQWfCygWxKNDygSlcsi-41" value="" style="endArrow=none;html=1;rounded=0;exitX=0.5;exitY=0;exitDx=0;exitDy=0;entryX=0.5;entryY=1;entryDx=0;entryDy=0;" edge="1" parent="1" source="0vQWfCygWxKNDygSlcsi-34" target="0vQWfCygWxKNDygSlcsi-28">
          <mxGeometry relative="1" as="geometry">
            <mxPoint x="830" y="180" as="sourcePoint" />
            <mxPoint x="990" y="180" as="targetPoint" />
          </mxGeometry>
        </mxCell>
        <mxCell id="0vQWfCygWxKNDygSlcsi-42" value="" style="endArrow=none;html=1;rounded=0;exitX=0.5;exitY=0;exitDx=0;exitDy=0;" edge="1" parent="1" source="0vQWfCygWxKNDygSlcsi-35" target="0vQWfCygWxKNDygSlcsi-28">
          <mxGeometry relative="1" as="geometry">
            <mxPoint x="830" y="180" as="sourcePoint" />
            <mxPoint x="990" y="180" as="targetPoint" />
          </mxGeometry>
        </mxCell>
        <mxCell id="0vQWfCygWxKNDygSlcsi-43" value="Visit" style="shape=associativeEntity;whiteSpace=wrap;html=1;align=center;fillColor=#dae8fc;strokeColor=#6c8ebf;" vertex="1" parent="1">
          <mxGeometry x="595" y="390" width="140" height="60" as="geometry" />
        </mxCell>
        <mxCell id="0vQWfCygWxKNDygSlcsi-44" value="" style="edgeStyle=entityRelationEdgeStyle;fontSize=12;html=1;endArrow=ERmany;rounded=0;exitX=1;exitY=0.5;exitDx=0;exitDy=0;" edge="1" parent="1" source="0vQWfCygWxKNDygSlcsi-43" target="0vQWfCygWxKNDygSlcsi-28">
          <mxGeometry width="100" height="100" relative="1" as="geometry">
            <mxPoint x="690" y="500" as="sourcePoint" />
            <mxPoint x="790" y="400" as="targetPoint" />
          </mxGeometry>
        </mxCell>
        <mxCell id="0vQWfCygWxKNDygSlcsi-45" value="" style="edgeStyle=entityRelationEdgeStyle;fontSize=12;html=1;endArrow=ERmany;rounded=0;exitX=0;exitY=0.5;exitDx=0;exitDy=0;" edge="1" parent="1" source="0vQWfCygWxKNDygSlcsi-43" target="0vQWfCygWxKNDygSlcsi-2">
          <mxGeometry width="100" height="100" relative="1" as="geometry">
            <mxPoint x="745" y="430" as="sourcePoint" />
            <mxPoint x="1130" y="230" as="targetPoint" />
            <Array as="points">
              <mxPoint x="1090" y="260" />
            </Array>
          </mxGeometry>
        </mxCell>
        <mxCell id="0vQWfCygWxKNDygSlcsi-48" value="" style="edgeStyle=entityRelationEdgeStyle;fontSize=12;html=1;endArrow=ERmany;rounded=0;exitX=0.5;exitY=0;exitDx=0;exitDy=0;" edge="1" parent="1" source="0vQWfCygWxKNDygSlcsi-43">
          <mxGeometry width="100" height="100" relative="1" as="geometry">
            <mxPoint x="775" y="460" as="sourcePoint" />
            <mxPoint x="570" y="230" as="targetPoint" />
            <Array as="points">
              <mxPoint x="580" y="270" />
            </Array>
          </mxGeometry>
        </mxCell>
        <mxCell id="0vQWfCygWxKNDygSlcsi-49" value="" style="endArrow=none;html=1;rounded=0;entryX=1;entryY=0;entryDx=0;entryDy=0;" edge="1" parent="1" target="0vQWfCygWxKNDygSlcsi-43">
          <mxGeometry relative="1" as="geometry">
            <mxPoint x="760" y="370" as="sourcePoint" />
            <mxPoint x="710" y="410" as="targetPoint" />
          </mxGeometry>
        </mxCell>
        <mxCell id="0vQWfCygWxKNDygSlcsi-50" value="Date" style="ellipse;whiteSpace=wrap;html=1;align=center;fillColor=#fff2cc;strokeColor=#d6b656;" vertex="1" parent="1">
          <mxGeometry x="735" y="340" width="80" height="30" as="geometry" />
        </mxCell>
        <mxCell id="0vQWfCygWxKNDygSlcsi-51" value="Time" style="ellipse;whiteSpace=wrap;html=1;align=center;fillColor=#fff2cc;strokeColor=#d6b656;" vertex="1" parent="1">
          <mxGeometry x="730" y="480" width="80" height="30" as="geometry" />
        </mxCell>
        <mxCell id="0vQWfCygWxKNDygSlcsi-52" value="" style="endArrow=none;html=1;rounded=0;entryX=1;entryY=1;entryDx=0;entryDy=0;exitX=0.5;exitY=0;exitDx=0;exitDy=0;" edge="1" parent="1" source="0vQWfCygWxKNDygSlcsi-51" target="0vQWfCygWxKNDygSlcsi-43">
          <mxGeometry relative="1" as="geometry">
            <mxPoint x="770" y="380" as="sourcePoint" />
            <mxPoint x="745" y="400" as="targetPoint" />
          </mxGeometry>
        </mxCell>
        <mxCell id="0vQWfCygWxKNDygSlcsi-53" value="" style="edgeStyle=entityRelationEdgeStyle;fontSize=12;html=1;endArrow=ERoneToMany;startArrow=ERmandOne;rounded=0;entryX=0;entryY=0.25;entryDx=0;entryDy=0;" edge="1" parent="1" target="0vQWfCygWxKNDygSlcsi-21">
          <mxGeometry width="100" height="100" relative="1" as="geometry">
            <mxPoint x="210" y="210" as="sourcePoint" />
            <mxPoint x="400" y="210" as="targetPoint" />
          </mxGeometry>
        </mxCell>
        <mxCell id="0vQWfCygWxKNDygSlcsi-54" value="" style="edgeStyle=entityRelationEdgeStyle;fontSize=12;html=1;endArrow=ERoneToMany;startArrow=ERoneToMany;rounded=0;entryX=0;entryY=0.25;entryDx=0;entryDy=0;exitX=1;exitY=0.25;exitDx=0;exitDy=0;exitPerimeter=0;" edge="1" parent="1" source="0vQWfCygWxKNDygSlcsi-21" target="0vQWfCygWxKNDygSlcsi-28">
          <mxGeometry width="100" height="100" relative="1" as="geometry">
            <mxPoint x="690" y="210" as="sourcePoint" />
            <mxPoint x="1055" y="210" as="targetPoint" />
          </mxGeometry>
        </mxCell>
        <mxCell id="0vQWfCygWxKNDygSlcsi-55" value="Employee" style="whiteSpace=wrap;html=1;align=center;fillColor=#d5e8d4;strokeColor=#82b366;" vertex="1" parent="1">
          <mxGeometry x="100" y="560" width="100" height="40" as="geometry" />
        </mxCell>
        <mxCell id="0vQWfCygWxKNDygSlcsi-56" value="Employee ID" style="ellipse;whiteSpace=wrap;html=1;align=center;fontStyle=4;fillColor=#fff2cc;strokeColor=#d6b656;" vertex="1" parent="1">
          <mxGeometry x="10" y="510" width="77.5" height="30" as="geometry" />
        </mxCell>
        <mxCell id="0vQWfCygWxKNDygSlcsi-62" value="Team" style="ellipse;whiteSpace=wrap;html=1;align=center;fillColor=#fff2cc;strokeColor=#d6b656;" vertex="1" parent="1">
          <mxGeometry x="100" y="630" width="60" height="30" as="geometry" />
        </mxCell>
        <mxCell id="0vQWfCygWxKNDygSlcsi-63" value="" style="endArrow=none;html=1;rounded=0;exitX=0.5;exitY=0;exitDx=0;exitDy=0;" edge="1" parent="1" source="0vQWfCygWxKNDygSlcsi-62" target="0vQWfCygWxKNDygSlcsi-55">
          <mxGeometry relative="1" as="geometry">
            <mxPoint x="310" y="460" as="sourcePoint" />
            <mxPoint x="470" y="460" as="targetPoint" />
          </mxGeometry>
        </mxCell>
        <mxCell id="0vQWfCygWxKNDygSlcsi-64" value="" style="edgeStyle=entityRelationEdgeStyle;fontSize=12;html=1;endArrow=ERzeroToOne;startArrow=ERmandOne;rounded=0;exitX=1;exitY=0.5;exitDx=0;exitDy=0;" edge="1" parent="1" source="0vQWfCygWxKNDygSlcsi-55">
          <mxGeometry width="100" height="100" relative="1" as="geometry">
            <mxPoint x="140" y="550" as="sourcePoint" />
            <mxPoint x="100" y="220" as="targetPoint" />
            <Array as="points">
              <mxPoint x="80" y="380" />
              <mxPoint x="90" y="450" />
              <mxPoint x="110" y="375" />
            </Array>
          </mxGeometry>
        </mxCell>
        <mxCell id="0vQWfCygWxKNDygSlcsi-67" value="" style="endArrow=none;html=1;rounded=0;exitX=0.645;exitY=1;exitDx=0;exitDy=0;exitPerimeter=0;" edge="1" parent="1" source="0vQWfCygWxKNDygSlcsi-56" target="0vQWfCygWxKNDygSlcsi-55">
          <mxGeometry relative="1" as="geometry">
            <mxPoint x="210" y="570" as="sourcePoint" />
            <mxPoint x="240" y="550" as="targetPoint" />
          </mxGeometry>
        </mxCell>
        <mxCell id="0vQWfCygWxKNDygSlcsi-68" value="Full name" style="ellipse;whiteSpace=wrap;html=1;align=center;fillColor=#fff2cc;strokeColor=#d6b656;" vertex="1" parent="1">
          <mxGeometry x="18.75" y="560" width="60" height="30" as="geometry" />
        </mxCell>
        <mxCell id="0vQWfCygWxKNDygSlcsi-69" value="" style="endArrow=none;html=1;rounded=0;entryX=0;entryY=0.5;entryDx=0;entryDy=0;" edge="1" parent="1" target="0vQWfCygWxKNDygSlcsi-55">
          <mxGeometry relative="1" as="geometry">
            <mxPoint x="80" y="580" as="sourcePoint" />
            <mxPoint x="240" y="587" as="targetPoint" />
          </mxGeometry>
        </mxCell>
        <mxCell id="0vQWfCygWxKNDygSlcsi-70" value="Salary" style="ellipse;whiteSpace=wrap;html=1;align=center;fillColor=#fff2cc;strokeColor=#d6b656;" vertex="1" parent="1">
          <mxGeometry x="27.5" y="610" width="60" height="30" as="geometry" />
        </mxCell>
        <mxCell id="0vQWfCygWxKNDygSlcsi-71" value="" style="endArrow=none;html=1;rounded=0;entryX=0.124;entryY=0.95;entryDx=0;entryDy=0;entryPerimeter=0;" edge="1" parent="1" target="0vQWfCygWxKNDygSlcsi-55">
          <mxGeometry relative="1" as="geometry">
            <mxPoint x="90" y="625" as="sourcePoint" />
            <mxPoint x="240" y="625" as="targetPoint" />
          </mxGeometry>
        </mxCell>
        <mxCell id="0vQWfCygWxKNDygSlcsi-73" value="Manage" style="shape=rhombus;perimeter=rhombusPerimeter;whiteSpace=wrap;html=1;align=center;fillColor=#dae8fc;strokeColor=#6c8ebf;" vertex="1" parent="1">
          <mxGeometry x="27.5" y="360" width="82.5" height="60" as="geometry" />
        </mxCell>
        <mxCell id="AhyFG9olNHuTZEmzUEvW-4" value="" style="edgeStyle=elbowEdgeStyle;fontSize=12;html=1;endArrow=ERoneToMany;startArrow=ERmandOne;rounded=0;elbow=vertical;exitX=0.75;exitY=1;exitDx=0;exitDy=0;" edge="1" parent="1" source="AhyFG9olNHuTZEmzUEvW-8">
          <mxGeometry width="100" height="100" relative="1" as="geometry">
            <mxPoint x="175" y="240" as="sourcePoint" />
            <mxPoint x="130" y="560" as="targetPoint" />
            <Array as="points">
              <mxPoint x="170" y="370" />
            </Array>
          </mxGeometry>
        </mxCell>
        <mxCell id="0vQWfCygWxKNDygSlcsi-12" value="Address" style="ellipse;whiteSpace=wrap;html=1;align=center;fillColor=#fff2cc;strokeColor=#d6b656;" vertex="1" parent="1">
          <mxGeometry x="130" y="140" width="60" height="30" as="geometry" />
        </mxCell>
        <mxCell id="0vQWfCygWxKNDygSlcsi-18" value="Building number" style="ellipse;whiteSpace=wrap;html=1;align=center;fillColor=#fff2cc;strokeColor=#d6b656;" vertex="1" parent="1">
          <mxGeometry x="78.75" y="90" width="60" height="30" as="geometry" />
        </mxCell>
        <mxCell id="AhyFG9olNHuTZEmzUEvW-11" value="" style="edgeStyle=elbowEdgeStyle;fontSize=12;html=1;endArrow=ERoneToMany;startArrow=ERmandOne;rounded=0;elbow=vertical;exitX=0.75;exitY=1;exitDx=0;exitDy=0;" edge="1" parent="1" target="AhyFG9olNHuTZEmzUEvW-8">
          <mxGeometry width="100" height="100" relative="1" as="geometry">
            <mxPoint x="175" y="240" as="sourcePoint" />
            <mxPoint x="130" y="560" as="targetPoint" />
            <Array as="points" />
          </mxGeometry>
        </mxCell>
        <mxCell id="AhyFG9olNHuTZEmzUEvW-8" value="Work" style="shape=rhombus;perimeter=rhombusPerimeter;whiteSpace=wrap;html=1;align=center;fillColor=#dae8fc;strokeColor=#6c8ebf;" vertex="1" parent="1">
          <mxGeometry x="130" y="310" width="90" height="60" as="geometry" />
        </mxCell>
        <mxCell id="AhyFG9olNHuTZEmzUEvW-12" value="" style="endArrow=none;html=1;rounded=0;exitX=0.5;exitY=1;exitDx=0;exitDy=0;entryX=0.5;entryY=0;entryDx=0;entryDy=0;" edge="1" parent="1" source="0vQWfCygWxKNDygSlcsi-12" target="0vQWfCygWxKNDygSlcsi-2">
          <mxGeometry relative="1" as="geometry">
            <mxPoint x="250" y="370" as="sourcePoint" />
            <mxPoint x="410" y="370" as="targetPoint" />
          </mxGeometry>
        </mxCell>
        <mxCell id="AhyFG9olNHuTZEmzUEvW-14" value="" style="endArrow=none;html=1;rounded=0;" edge="1" parent="1" source="0vQWfCygWxKNDygSlcsi-18">
          <mxGeometry relative="1" as="geometry">
            <mxPoint x="250" y="280" as="sourcePoint" />
            <mxPoint x="140" y="140" as="targetPoint" />
          </mxGeometry>
        </mxCell>
        <mxCell id="AhyFG9olNHuTZEmzUEvW-15" value="" style="endArrow=none;html=1;rounded=0;exitX=0.5;exitY=0;exitDx=0;exitDy=0;entryX=0.5;entryY=1;entryDx=0;entryDy=0;" edge="1" parent="1" source="0vQWfCygWxKNDygSlcsi-12" target="0vQWfCygWxKNDygSlcsi-17">
          <mxGeometry relative="1" as="geometry">
            <mxPoint x="250" y="280" as="sourcePoint" />
            <mxPoint x="410" y="280" as="targetPoint" />
          </mxGeometry>
        </mxCell>
        <mxCell id="AhyFG9olNHuTZEmzUEvW-16" value="" style="endArrow=none;html=1;rounded=0;exitX=1;exitY=0;exitDx=0;exitDy=0;" edge="1" parent="1" source="0vQWfCygWxKNDygSlcsi-12">
          <mxGeometry relative="1" as="geometry">
            <mxPoint x="250" y="280" as="sourcePoint" />
            <mxPoint x="200" y="120" as="targetPoint" />
          </mxGeometry>
        </mxCell>
        <mxCell id="AhyFG9olNHuTZEmzUEvW-27" style="edgeStyle=orthogonalEdgeStyle;rounded=0;orthogonalLoop=1;jettySize=auto;html=1;exitX=0;exitY=1;exitDx=0;exitDy=0;" edge="1" parent="1" source="AhyFG9olNHuTZEmzUEvW-18">
          <mxGeometry relative="1" as="geometry">
            <mxPoint x="210" y="710" as="targetPoint" />
          </mxGeometry>
        </mxCell>
        <mxCell id="AhyFG9olNHuTZEmzUEvW-18" value="Supervise" style="shape=rhombus;perimeter=rhombusPerimeter;whiteSpace=wrap;html=1;align=center;fillColor=#dae8fc;strokeColor=#6c8ebf;" vertex="1" parent="1">
          <mxGeometry x="190" y="690" width="70" height="40" as="geometry" />
        </mxCell>
        <mxCell id="AhyFG9olNHuTZEmzUEvW-21" value="" style="endArrow=none;html=1;rounded=0;exitX=0.75;exitY=1;exitDx=0;exitDy=0;entryX=0;entryY=0.5;entryDx=0;entryDy=0;" edge="1" parent="1" source="0vQWfCygWxKNDygSlcsi-55" target="AhyFG9olNHuTZEmzUEvW-18">
          <mxGeometry relative="1" as="geometry">
            <mxPoint x="320" y="670" as="sourcePoint" />
            <mxPoint x="420" y="700" as="targetPoint" />
          </mxGeometry>
        </mxCell>
        <mxCell id="AhyFG9olNHuTZEmzUEvW-22" value="1" style="resizable=0;html=1;whiteSpace=wrap;align=right;verticalAlign=bottom;" connectable="0" vertex="1" parent="AhyFG9olNHuTZEmzUEvW-21">
          <mxGeometry x="1" relative="1" as="geometry" />
        </mxCell>
        <mxCell id="AhyFG9olNHuTZEmzUEvW-25" value="" style="endArrow=none;html=1;rounded=0;exitX=1;exitY=1;exitDx=0;exitDy=0;entryX=1;entryY=0.5;entryDx=0;entryDy=0;" edge="1" parent="1" source="0vQWfCygWxKNDygSlcsi-55" target="AhyFG9olNHuTZEmzUEvW-18">
          <mxGeometry relative="1" as="geometry">
            <mxPoint x="250" y="730" as="sourcePoint" />
            <mxPoint x="410" y="730" as="targetPoint" />
          </mxGeometry>
        </mxCell>
        <mxCell id="AhyFG9olNHuTZEmzUEvW-26" value="N" style="resizable=0;html=1;whiteSpace=wrap;align=right;verticalAlign=bottom;" connectable="0" vertex="1" parent="AhyFG9olNHuTZEmzUEvW-25">
          <mxGeometry x="1" relative="1" as="geometry" />
        </mxCell>
        <mxCell id="AhyFG9olNHuTZEmzUEvW-28" value="Start time" style="ellipse;whiteSpace=wrap;html=1;align=center;fillColor=#fff2cc;strokeColor=#d6b656;" vertex="1" parent="1">
          <mxGeometry x="220" y="290" width="70" height="30" as="geometry" />
        </mxCell>
        <mxCell id="AhyFG9olNHuTZEmzUEvW-30" value="End time" style="ellipse;whiteSpace=wrap;html=1;align=center;fillColor=#fff2cc;strokeColor=#d6b656;" vertex="1" parent="1">
          <mxGeometry x="235" y="350" width="70" height="30" as="geometry" />
        </mxCell>
        <mxCell id="AhyFG9olNHuTZEmzUEvW-32" value="" style="endArrow=none;html=1;rounded=0;exitX=0.862;exitY=0.347;exitDx=0;exitDy=0;exitPerimeter=0;entryX=0;entryY=1;entryDx=0;entryDy=0;" edge="1" parent="1" source="AhyFG9olNHuTZEmzUEvW-8" target="AhyFG9olNHuTZEmzUEvW-28">
          <mxGeometry relative="1" as="geometry">
            <mxPoint x="250" y="450" as="sourcePoint" />
            <mxPoint x="410" y="450" as="targetPoint" />
          </mxGeometry>
        </mxCell>
        <mxCell id="AhyFG9olNHuTZEmzUEvW-33" value="" style="endArrow=none;html=1;rounded=0;" edge="1" parent="1" source="AhyFG9olNHuTZEmzUEvW-8">
          <mxGeometry relative="1" as="geometry">
            <mxPoint x="250" y="450" as="sourcePoint" />
            <mxPoint x="230" y="365" as="targetPoint" />
          </mxGeometry>
        </mxCell>
      </root>
    </mxGraphModel>
  </diagram>
  <diagram id="3cl4c_2zghDEzMIquWVm" name="Page-3">
    <mxGraphModel dx="1050" dy="566" grid="1" gridSize="10" guides="1" tooltips="1" connect="1" arrows="1" fold="1" page="1" pageScale="1" pageWidth="850" pageHeight="1100" math="0" shadow="0">
      <root>
        <mxCell id="0" />
        <mxCell id="1" parent="0" />
        <mxCell id="neTEHFY-NGKtXu6BNgQC-1" value="XYZ take away resturant" style="whiteSpace=wrap;html=1;fontSize=18;" vertex="1" parent="1">
          <mxGeometry x="305" y="40" width="265" height="60" as="geometry" />
        </mxCell>
        <mxCell id="neTEHFY-NGKtXu6BNgQC-2" value="Branch" style="whiteSpace=wrap;html=1;align=center;fillColor=#d5e8d4;strokeColor=#82b366;" vertex="1" parent="1">
          <mxGeometry x="120" y="160" width="100" height="40" as="geometry" />
        </mxCell>
        <mxCell id="neTEHFY-NGKtXu6BNgQC-3" value="ID number" style="ellipse;whiteSpace=wrap;html=1;align=center;fontStyle=4;fillColor=#fff2cc;strokeColor=#d6b656;" vertex="1" parent="1">
          <mxGeometry x="210" y="100" width="85" height="30" as="geometry" />
        </mxCell>
        <mxCell id="neTEHFY-NGKtXu6BNgQC-4" value="Address" style="ellipse;whiteSpace=wrap;html=1;align=center;fillColor=#fff2cc;strokeColor=#d6b656;" vertex="1" parent="1">
          <mxGeometry x="110" y="100" width="90" height="35" as="geometry" />
        </mxCell>
        <mxCell id="neTEHFY-NGKtXu6BNgQC-5" value="Contact no" style="ellipse;whiteSpace=wrap;html=1;align=center;fillColor=#fff2cc;strokeColor=#d6b656;" vertex="1" parent="1">
          <mxGeometry x="10" y="100" width="90" height="35" as="geometry" />
        </mxCell>
        <mxCell id="neTEHFY-NGKtXu6BNgQC-6" value="" style="endArrow=none;html=1;rounded=0;exitX=1;exitY=0;exitDx=0;exitDy=0;entryX=0.5;entryY=1;entryDx=0;entryDy=0;" edge="1" parent="1" source="neTEHFY-NGKtXu6BNgQC-2" target="neTEHFY-NGKtXu6BNgQC-3">
          <mxGeometry relative="1" as="geometry">
            <mxPoint x="340" y="290" as="sourcePoint" />
            <mxPoint x="500" y="290" as="targetPoint" />
          </mxGeometry>
        </mxCell>
        <mxCell id="neTEHFY-NGKtXu6BNgQC-7" value="" style="endArrow=none;html=1;rounded=0;exitX=0.412;exitY=0.01;exitDx=0;exitDy=0;exitPerimeter=0;" edge="1" parent="1" source="neTEHFY-NGKtXu6BNgQC-2">
          <mxGeometry relative="1" as="geometry">
            <mxPoint x="340" y="290" as="sourcePoint" />
            <mxPoint x="161" y="130" as="targetPoint" />
          </mxGeometry>
        </mxCell>
        <mxCell id="neTEHFY-NGKtXu6BNgQC-8" value="" style="endArrow=none;html=1;rounded=0;exitX=0;exitY=0;exitDx=0;exitDy=0;entryX=0.738;entryY=0.926;entryDx=0;entryDy=0;entryPerimeter=0;" edge="1" parent="1" source="neTEHFY-NGKtXu6BNgQC-2" target="neTEHFY-NGKtXu6BNgQC-5">
          <mxGeometry relative="1" as="geometry">
            <mxPoint x="340" y="290" as="sourcePoint" />
            <mxPoint x="500" y="290" as="targetPoint" />
          </mxGeometry>
        </mxCell>
        <mxCell id="neTEHFY-NGKtXu6BNgQC-9" value="Staff" style="whiteSpace=wrap;html=1;align=center;fillColor=#d5e8d4;strokeColor=#82b366;" vertex="1" parent="1">
          <mxGeometry x="580" y="160" width="100" height="40" as="geometry" />
        </mxCell>
        <mxCell id="neTEHFY-NGKtXu6BNgQC-10" value="ID" style="ellipse;whiteSpace=wrap;html=1;align=center;fontStyle=4;fillColor=#fff2cc;strokeColor=#d6b656;" vertex="1" parent="1">
          <mxGeometry x="680" y="110" width="60" height="25" as="geometry" />
        </mxCell>
        <mxCell id="neTEHFY-NGKtXu6BNgQC-11" value="Full name" style="ellipse;whiteSpace=wrap;html=1;align=center;fillColor=#fff2cc;strokeColor=#d6b656;" vertex="1" parent="1">
          <mxGeometry x="590" y="110" width="80" height="30" as="geometry" />
        </mxCell>
        <mxCell id="neTEHFY-NGKtXu6BNgQC-12" value="Joining date" style="ellipse;whiteSpace=wrap;html=1;align=center;fillColor=#fff2cc;strokeColor=#d6b656;" vertex="1" parent="1">
          <mxGeometry x="500" y="110" width="80" height="30" as="geometry" />
        </mxCell>
        <mxCell id="neTEHFY-NGKtXu6BNgQC-13" value="Age" style="ellipse;whiteSpace=wrap;html=1;align=center;fillColor=#fff2cc;strokeColor=#d6b656;" vertex="1" parent="1">
          <mxGeometry x="700" y="150" width="50" height="20" as="geometry" />
        </mxCell>
        <mxCell id="neTEHFY-NGKtXu6BNgQC-14" value="Adress" style="ellipse;whiteSpace=wrap;html=1;align=center;fillColor=#fff2cc;strokeColor=#d6b656;" vertex="1" parent="1">
          <mxGeometry x="700" y="180" width="70" height="30" as="geometry" />
        </mxCell>
        <mxCell id="neTEHFY-NGKtXu6BNgQC-15" value="Role" style="ellipse;whiteSpace=wrap;html=1;align=center;fillColor=#fff2cc;strokeColor=#d6b656;" vertex="1" parent="1">
          <mxGeometry x="640" y="220" width="50" height="20" as="geometry" />
        </mxCell>
        <mxCell id="neTEHFY-NGKtXu6BNgQC-16" value="Monthly salary" style="ellipse;whiteSpace=wrap;html=1;align=center;fillColor=#fff2cc;strokeColor=#d6b656;" vertex="1" parent="1">
          <mxGeometry x="560" y="215" width="70" height="30" as="geometry" />
        </mxCell>
        <mxCell id="neTEHFY-NGKtXu6BNgQC-17" value="City" style="ellipse;whiteSpace=wrap;html=1;align=center;fillColor=#fff2cc;strokeColor=#d6b656;" vertex="1" parent="1">
          <mxGeometry x="710" y="220" width="50" height="20" as="geometry" />
        </mxCell>
        <mxCell id="neTEHFY-NGKtXu6BNgQC-18" value="Region" style="ellipse;whiteSpace=wrap;html=1;align=center;fillColor=#fff2cc;strokeColor=#d6b656;" vertex="1" parent="1">
          <mxGeometry x="770" y="215" width="50" height="20" as="geometry" />
        </mxCell>
        <mxCell id="neTEHFY-NGKtXu6BNgQC-19" value="" style="endArrow=none;html=1;rounded=0;exitX=0.34;exitY=0.992;exitDx=0;exitDy=0;exitPerimeter=0;entryX=1;entryY=0;entryDx=0;entryDy=0;" edge="1" parent="1" source="neTEHFY-NGKtXu6BNgQC-10" target="neTEHFY-NGKtXu6BNgQC-9">
          <mxGeometry relative="1" as="geometry">
            <mxPoint x="340" y="290" as="sourcePoint" />
            <mxPoint x="500" y="290" as="targetPoint" />
          </mxGeometry>
        </mxCell>
        <mxCell id="neTEHFY-NGKtXu6BNgQC-21" value="" style="endArrow=none;html=1;rounded=0;exitX=0.5;exitY=1;exitDx=0;exitDy=0;" edge="1" parent="1" source="neTEHFY-NGKtXu6BNgQC-11" target="neTEHFY-NGKtXu6BNgQC-9">
          <mxGeometry relative="1" as="geometry">
            <mxPoint x="720" y="155" as="sourcePoint" />
            <mxPoint x="700" y="180" as="targetPoint" />
          </mxGeometry>
        </mxCell>
        <mxCell id="neTEHFY-NGKtXu6BNgQC-22" value="" style="endArrow=none;html=1;rounded=0;entryX=0;entryY=0;entryDx=0;entryDy=0;" edge="1" parent="1" target="neTEHFY-NGKtXu6BNgQC-9">
          <mxGeometry relative="1" as="geometry">
            <mxPoint x="550" y="140" as="sourcePoint" />
            <mxPoint x="710" y="190" as="targetPoint" />
          </mxGeometry>
        </mxCell>
        <mxCell id="neTEHFY-NGKtXu6BNgQC-23" value="" style="endArrow=none;html=1;rounded=0;exitX=0;exitY=0.5;exitDx=0;exitDy=0;entryX=1;entryY=0.5;entryDx=0;entryDy=0;" edge="1" parent="1" source="neTEHFY-NGKtXu6BNgQC-13" target="neTEHFY-NGKtXu6BNgQC-9">
          <mxGeometry relative="1" as="geometry">
            <mxPoint x="740" y="175" as="sourcePoint" />
            <mxPoint x="720" y="200" as="targetPoint" />
          </mxGeometry>
        </mxCell>
        <mxCell id="neTEHFY-NGKtXu6BNgQC-24" value="" style="endArrow=none;html=1;rounded=0;entryX=1;entryY=0.75;entryDx=0;entryDy=0;exitX=0;exitY=0.5;exitDx=0;exitDy=0;" edge="1" parent="1" source="neTEHFY-NGKtXu6BNgQC-14" target="neTEHFY-NGKtXu6BNgQC-9">
          <mxGeometry relative="1" as="geometry">
            <mxPoint x="690" y="200" as="sourcePoint" />
            <mxPoint x="730" y="210" as="targetPoint" />
          </mxGeometry>
        </mxCell>
        <mxCell id="neTEHFY-NGKtXu6BNgQC-25" value="" style="endArrow=none;html=1;rounded=0;entryX=1;entryY=0;entryDx=0;entryDy=0;" edge="1" parent="1">
          <mxGeometry relative="1" as="geometry">
            <mxPoint x="750" y="210" as="sourcePoint" />
            <mxPoint x="740" y="220" as="targetPoint" />
          </mxGeometry>
        </mxCell>
        <mxCell id="neTEHFY-NGKtXu6BNgQC-26" value="" style="endArrow=none;html=1;rounded=0;entryX=0.5;entryY=0;entryDx=0;entryDy=0;" edge="1" parent="1" target="neTEHFY-NGKtXu6BNgQC-18">
          <mxGeometry relative="1" as="geometry">
            <mxPoint x="770" y="200" as="sourcePoint" />
            <mxPoint x="750" y="230" as="targetPoint" />
          </mxGeometry>
        </mxCell>
        <mxCell id="neTEHFY-NGKtXu6BNgQC-27" value="" style="endArrow=none;html=1;rounded=0;entryX=0.5;entryY=0;entryDx=0;entryDy=0;" edge="1" parent="1" target="neTEHFY-NGKtXu6BNgQC-15">
          <mxGeometry relative="1" as="geometry">
            <mxPoint x="665" y="200" as="sourcePoint" />
            <mxPoint x="760" y="240" as="targetPoint" />
          </mxGeometry>
        </mxCell>
        <mxCell id="neTEHFY-NGKtXu6BNgQC-28" value="" style="endArrow=none;html=1;rounded=0;entryX=0.6;entryY=0.02;entryDx=0;entryDy=0;entryPerimeter=0;" edge="1" parent="1" target="neTEHFY-NGKtXu6BNgQC-16">
          <mxGeometry relative="1" as="geometry">
            <mxPoint x="620" y="200" as="sourcePoint" />
            <mxPoint x="770" y="250" as="targetPoint" />
          </mxGeometry>
        </mxCell>
        <mxCell id="neTEHFY-NGKtXu6BNgQC-29" value="Customer" style="whiteSpace=wrap;html=1;align=center;fillColor=#d5e8d4;strokeColor=#82b366;" vertex="1" parent="1">
          <mxGeometry x="1210" y="160" width="100" height="40" as="geometry" />
        </mxCell>
        <mxCell id="neTEHFY-NGKtXu6BNgQC-30" value="Code" style="ellipse;whiteSpace=wrap;html=1;align=center;fontStyle=4;fillColor=#fff2cc;strokeColor=#d6b656;" vertex="1" parent="1">
          <mxGeometry x="1300" y="101.25" width="70" height="32.5" as="geometry" />
        </mxCell>
        <mxCell id="neTEHFY-NGKtXu6BNgQC-31" value="Name" style="ellipse;whiteSpace=wrap;html=1;align=center;fillColor=#fff2cc;strokeColor=#d6b656;" vertex="1" parent="1">
          <mxGeometry x="1340" y="160" width="50" height="20" as="geometry" />
        </mxCell>
        <mxCell id="neTEHFY-NGKtXu6BNgQC-32" value="Contact number" style="ellipse;whiteSpace=wrap;html=1;align=center;fillColor=#fff2cc;strokeColor=#d6b656;" vertex="1" parent="1">
          <mxGeometry x="1340" y="200" width="80" height="30" as="geometry" />
        </mxCell>
        <mxCell id="neTEHFY-NGKtXu6BNgQC-33" value="" style="endArrow=none;html=1;rounded=0;exitX=1;exitY=0;exitDx=0;exitDy=0;entryX=0.5;entryY=1;entryDx=0;entryDy=0;" edge="1" parent="1" source="neTEHFY-NGKtXu6BNgQC-29" target="neTEHFY-NGKtXu6BNgQC-30">
          <mxGeometry relative="1" as="geometry">
            <mxPoint x="1390" y="290" as="sourcePoint" />
            <mxPoint x="1550" y="290" as="targetPoint" />
          </mxGeometry>
        </mxCell>
        <mxCell id="neTEHFY-NGKtXu6BNgQC-34" value="" style="endArrow=none;html=1;rounded=0;exitX=1;exitY=0.5;exitDx=0;exitDy=0;entryX=0;entryY=1;entryDx=0;entryDy=0;" edge="1" parent="1" source="neTEHFY-NGKtXu6BNgQC-29" target="neTEHFY-NGKtXu6BNgQC-31">
          <mxGeometry relative="1" as="geometry">
            <mxPoint x="1390" y="290" as="sourcePoint" />
            <mxPoint x="1550" y="290" as="targetPoint" />
          </mxGeometry>
        </mxCell>
        <mxCell id="neTEHFY-NGKtXu6BNgQC-35" value="" style="endArrow=none;html=1;rounded=0;exitX=1;exitY=1;exitDx=0;exitDy=0;entryX=0;entryY=0.5;entryDx=0;entryDy=0;" edge="1" parent="1" source="neTEHFY-NGKtXu6BNgQC-29" target="neTEHFY-NGKtXu6BNgQC-32">
          <mxGeometry relative="1" as="geometry">
            <mxPoint x="1390" y="290" as="sourcePoint" />
            <mxPoint x="1350" y="220" as="targetPoint" />
          </mxGeometry>
        </mxCell>
        <mxCell id="neTEHFY-NGKtXu6BNgQC-36" value="Menue" style="whiteSpace=wrap;html=1;align=center;fillColor=#d5e8d4;strokeColor=#82b366;" vertex="1" parent="1">
          <mxGeometry x="110" y="400" width="110" height="40" as="geometry" />
        </mxCell>
        <mxCell id="neTEHFY-NGKtXu6BNgQC-37" value="Order" style="whiteSpace=wrap;html=1;align=center;fillColor=#d5e8d4;strokeColor=#82b366;" vertex="1" parent="1">
          <mxGeometry x="685" y="400" width="100" height="40" as="geometry" />
        </mxCell>
        <mxCell id="neTEHFY-NGKtXu6BNgQC-38" value="Delivery" style="whiteSpace=wrap;html=1;align=center;fillColor=#d5e8d4;strokeColor=#82b366;" vertex="1" parent="1">
          <mxGeometry x="1190" y="400" width="100" height="40" as="geometry" />
        </mxCell>
        <mxCell id="neTEHFY-NGKtXu6BNgQC-39" value="ID" style="ellipse;whiteSpace=wrap;html=1;align=center;fontStyle=4;fillColor=#fff2cc;strokeColor=#d6b656;" vertex="1" parent="1">
          <mxGeometry x="1280" y="350" width="70" height="32.5" as="geometry" />
        </mxCell>
        <mxCell id="neTEHFY-NGKtXu6BNgQC-40" value="Name" style="ellipse;whiteSpace=wrap;html=1;align=center;fillColor=#fff2cc;strokeColor=#d6b656;" vertex="1" parent="1">
          <mxGeometry x="1320" y="410" width="50" height="20" as="geometry" />
        </mxCell>
        <mxCell id="neTEHFY-NGKtXu6BNgQC-41" value="Contact number" style="ellipse;whiteSpace=wrap;html=1;align=center;fillColor=#fff2cc;strokeColor=#d6b656;" vertex="1" parent="1">
          <mxGeometry x="1300" y="450" width="80" height="30" as="geometry" />
        </mxCell>
        <mxCell id="neTEHFY-NGKtXu6BNgQC-42" value="" style="endArrow=none;html=1;rounded=0;exitX=0.5;exitY=1;exitDx=0;exitDy=0;entryX=1;entryY=0;entryDx=0;entryDy=0;" edge="1" parent="1" source="neTEHFY-NGKtXu6BNgQC-39" target="neTEHFY-NGKtXu6BNgQC-38">
          <mxGeometry relative="1" as="geometry">
            <mxPoint x="1320" y="170" as="sourcePoint" />
            <mxPoint x="1290" y="390" as="targetPoint" />
          </mxGeometry>
        </mxCell>
        <mxCell id="neTEHFY-NGKtXu6BNgQC-43" value="" style="endArrow=none;html=1;rounded=0;exitX=0;exitY=0.5;exitDx=0;exitDy=0;entryX=1;entryY=0.5;entryDx=0;entryDy=0;" edge="1" parent="1" source="neTEHFY-NGKtXu6BNgQC-40" target="neTEHFY-NGKtXu6BNgQC-38">
          <mxGeometry relative="1" as="geometry">
            <mxPoint x="1330" y="180" as="sourcePoint" />
            <mxPoint x="1355" y="154" as="targetPoint" />
          </mxGeometry>
        </mxCell>
        <mxCell id="neTEHFY-NGKtXu6BNgQC-44" value="" style="endArrow=none;html=1;rounded=0;exitX=1;exitY=1;exitDx=0;exitDy=0;" edge="1" parent="1" source="neTEHFY-NGKtXu6BNgQC-38" target="neTEHFY-NGKtXu6BNgQC-41">
          <mxGeometry relative="1" as="geometry">
            <mxPoint x="1340" y="190" as="sourcePoint" />
            <mxPoint x="1365" y="164" as="targetPoint" />
          </mxGeometry>
        </mxCell>
        <mxCell id="neTEHFY-NGKtXu6BNgQC-45" value="ID" style="ellipse;whiteSpace=wrap;html=1;align=center;fontStyle=4;fillColor=#fff2cc;strokeColor=#d6b656;" vertex="1" parent="1">
          <mxGeometry x="780" y="350" width="70" height="32.5" as="geometry" />
        </mxCell>
        <mxCell id="neTEHFY-NGKtXu6BNgQC-46" value="" style="endArrow=none;html=1;rounded=0;exitX=0.349;exitY=1.058;exitDx=0;exitDy=0;entryX=1;entryY=0;entryDx=0;entryDy=0;exitPerimeter=0;" edge="1" parent="1" source="neTEHFY-NGKtXu6BNgQC-45" target="neTEHFY-NGKtXu6BNgQC-37">
          <mxGeometry relative="1" as="geometry">
            <mxPoint x="1325" y="393" as="sourcePoint" />
            <mxPoint x="1300" y="410" as="targetPoint" />
          </mxGeometry>
        </mxCell>
        <mxCell id="neTEHFY-NGKtXu6BNgQC-47" value="" style="endArrow=none;html=1;rounded=0;entryX=1;entryY=0.25;entryDx=0;entryDy=0;" edge="1" parent="1" target="neTEHFY-NGKtXu6BNgQC-37">
          <mxGeometry relative="1" as="geometry">
            <mxPoint x="830" y="400" as="sourcePoint" />
            <mxPoint x="1310" y="420" as="targetPoint" />
          </mxGeometry>
        </mxCell>
        <mxCell id="neTEHFY-NGKtXu6BNgQC-49" value="Address" style="ellipse;whiteSpace=wrap;html=1;align=center;fillColor=#fff2cc;strokeColor=#d6b656;" vertex="1" parent="1">
          <mxGeometry x="820" y="390" width="50" height="20" as="geometry" />
        </mxCell>
        <mxCell id="neTEHFY-NGKtXu6BNgQC-50" value="Total bill" style="ellipse;whiteSpace=wrap;html=1;align=center;fillColor=#fff2cc;strokeColor=#d6b656;" vertex="1" parent="1">
          <mxGeometry x="770" y="460" width="80" height="30" as="geometry" />
        </mxCell>
        <mxCell id="neTEHFY-NGKtXu6BNgQC-51" value="" style="endArrow=none;html=1;rounded=0;exitX=0.38;exitY=-0.013;exitDx=0;exitDy=0;exitPerimeter=0;entryX=1;entryY=1;entryDx=0;entryDy=0;" edge="1" parent="1" source="neTEHFY-NGKtXu6BNgQC-50" target="neTEHFY-NGKtXu6BNgQC-37">
          <mxGeometry relative="1" as="geometry">
            <mxPoint x="1300" y="450" as="sourcePoint" />
            <mxPoint x="1326" y="463" as="targetPoint" />
          </mxGeometry>
        </mxCell>
        <mxCell id="neTEHFY-NGKtXu6BNgQC-52" value="" style="endArrow=none;html=1;rounded=0;" edge="1" parent="1">
          <mxGeometry relative="1" as="geometry">
            <mxPoint x="746" y="440" as="sourcePoint" />
            <mxPoint x="740" y="480" as="targetPoint" />
          </mxGeometry>
        </mxCell>
        <mxCell id="neTEHFY-NGKtXu6BNgQC-53" value="Time" style="ellipse;whiteSpace=wrap;html=1;align=center;fillColor=#fff2cc;strokeColor=#d6b656;" vertex="1" parent="1">
          <mxGeometry x="710" y="470" width="50" height="20" as="geometry" />
        </mxCell>
        <mxCell id="neTEHFY-NGKtXu6BNgQC-54" value="Date" style="ellipse;whiteSpace=wrap;html=1;align=center;fillColor=#fff2cc;strokeColor=#d6b656;" vertex="1" parent="1">
          <mxGeometry x="650" y="470" width="50" height="20" as="geometry" />
        </mxCell>
        <mxCell id="neTEHFY-NGKtXu6BNgQC-55" value="" style="endArrow=none;html=1;rounded=0;entryX=0.704;entryY=-0.08;entryDx=0;entryDy=0;entryPerimeter=0;" edge="1" parent="1" target="neTEHFY-NGKtXu6BNgQC-54">
          <mxGeometry relative="1" as="geometry">
            <mxPoint x="700" y="440" as="sourcePoint" />
            <mxPoint x="750" y="490" as="targetPoint" />
          </mxGeometry>
        </mxCell>
        <mxCell id="neTEHFY-NGKtXu6BNgQC-56" value="Code" style="ellipse;whiteSpace=wrap;html=1;align=center;fontStyle=4;fillColor=#fff2cc;strokeColor=#d6b656;" vertex="1" parent="1">
          <mxGeometry x="222.5" y="348.75" width="60" height="25" as="geometry" />
        </mxCell>
        <mxCell id="neTEHFY-NGKtXu6BNgQC-57" value="Item name" style="ellipse;whiteSpace=wrap;html=1;align=center;fillColor=#fff2cc;strokeColor=#d6b656;" vertex="1" parent="1">
          <mxGeometry x="180" y="460" width="80" height="30" as="geometry" />
        </mxCell>
        <mxCell id="neTEHFY-NGKtXu6BNgQC-58" value="Unit price" style="ellipse;whiteSpace=wrap;html=1;align=center;fillColor=#fff2cc;strokeColor=#d6b656;" vertex="1" parent="1">
          <mxGeometry x="30" y="360" width="80" height="30" as="geometry" />
        </mxCell>
        <mxCell id="neTEHFY-NGKtXu6BNgQC-59" value="Item category" style="ellipse;whiteSpace=wrap;html=1;align=center;fillColor=#fff2cc;strokeColor=#d6b656;" vertex="1" parent="1">
          <mxGeometry x="20" y="450" width="80" height="30" as="geometry" />
        </mxCell>
        <mxCell id="neTEHFY-NGKtXu6BNgQC-60" value="" style="endArrow=none;html=1;rounded=0;entryX=1;entryY=0;entryDx=0;entryDy=0;exitX=0.313;exitY=1.024;exitDx=0;exitDy=0;exitPerimeter=0;" edge="1" parent="1" source="neTEHFY-NGKtXu6BNgQC-56" target="neTEHFY-NGKtXu6BNgQC-36">
          <mxGeometry relative="1" as="geometry">
            <mxPoint x="710" y="450" as="sourcePoint" />
            <mxPoint x="695" y="478" as="targetPoint" />
          </mxGeometry>
        </mxCell>
        <mxCell id="neTEHFY-NGKtXu6BNgQC-61" value="" style="endArrow=none;html=1;rounded=0;entryX=1;entryY=1;entryDx=0;entryDy=0;exitX=0.5;exitY=0;exitDx=0;exitDy=0;" edge="1" parent="1" source="neTEHFY-NGKtXu6BNgQC-57" target="neTEHFY-NGKtXu6BNgQC-36">
          <mxGeometry relative="1" as="geometry">
            <mxPoint x="330" y="460" as="sourcePoint" />
            <mxPoint x="705" y="488" as="targetPoint" />
          </mxGeometry>
        </mxCell>
        <mxCell id="neTEHFY-NGKtXu6BNgQC-62" value="" style="endArrow=none;html=1;rounded=0;exitX=0;exitY=0;exitDx=0;exitDy=0;entryX=1;entryY=1;entryDx=0;entryDy=0;" edge="1" parent="1" source="neTEHFY-NGKtXu6BNgQC-36" target="neTEHFY-NGKtXu6BNgQC-58">
          <mxGeometry relative="1" as="geometry">
            <mxPoint x="730" y="470" as="sourcePoint" />
            <mxPoint x="190" y="380" as="targetPoint" />
          </mxGeometry>
        </mxCell>
        <mxCell id="neTEHFY-NGKtXu6BNgQC-63" value="" style="endArrow=none;html=1;rounded=0;entryX=0.955;entryY=0.267;entryDx=0;entryDy=0;entryPerimeter=0;exitX=0;exitY=1;exitDx=0;exitDy=0;" edge="1" parent="1" source="neTEHFY-NGKtXu6BNgQC-36" target="neTEHFY-NGKtXu6BNgQC-59">
          <mxGeometry relative="1" as="geometry">
            <mxPoint x="740" y="480" as="sourcePoint" />
            <mxPoint x="725" y="508" as="targetPoint" />
          </mxGeometry>
        </mxCell>
        <mxCell id="neTEHFY-NGKtXu6BNgQC-65" value="" style="edgeStyle=entityRelationEdgeStyle;fontSize=12;html=1;endArrow=ERoneToMany;startArrow=ERmandOne;rounded=0;entryX=0;entryY=0.25;entryDx=0;entryDy=0;" edge="1" parent="1" source="neTEHFY-NGKtXu6BNgQC-66" target="neTEHFY-NGKtXu6BNgQC-9">
          <mxGeometry width="100" height="100" relative="1" as="geometry">
            <mxPoint x="220" y="170" as="sourcePoint" />
            <mxPoint x="550" y="170" as="targetPoint" />
          </mxGeometry>
        </mxCell>
        <mxCell id="neTEHFY-NGKtXu6BNgQC-67" value="" style="edgeStyle=entityRelationEdgeStyle;fontSize=12;html=1;endArrow=ERoneToMany;startArrow=ERmandOne;rounded=0;entryX=0;entryY=0.25;entryDx=0;entryDy=0;" edge="1" parent="1" target="neTEHFY-NGKtXu6BNgQC-66">
          <mxGeometry width="100" height="100" relative="1" as="geometry">
            <mxPoint x="220" y="170" as="sourcePoint" />
            <mxPoint x="580" y="170" as="targetPoint" />
          </mxGeometry>
        </mxCell>
        <mxCell id="neTEHFY-NGKtXu6BNgQC-66" value="Work" style="shape=rhombus;perimeter=rhombusPerimeter;whiteSpace=wrap;html=1;align=center;fillColor=#dae8fc;strokeColor=#6c8ebf;" vertex="1" parent="1">
          <mxGeometry x="360" y="135" width="70" height="45" as="geometry" />
        </mxCell>
        <mxCell id="neTEHFY-NGKtXu6BNgQC-68" value="" style="edgeStyle=entityRelationEdgeStyle;fontSize=12;html=1;endArrow=ERmandOne;startArrow=ERmandOne;rounded=0;" edge="1" parent="1" source="neTEHFY-NGKtXu6BNgQC-69">
          <mxGeometry width="100" height="100" relative="1" as="geometry">
            <mxPoint x="220" y="190" as="sourcePoint" />
            <mxPoint x="580" y="190" as="targetPoint" />
          </mxGeometry>
        </mxCell>
        <mxCell id="neTEHFY-NGKtXu6BNgQC-70" value="" style="edgeStyle=entityRelationEdgeStyle;fontSize=12;html=1;endArrow=ERmandOne;startArrow=ERmandOne;rounded=0;" edge="1" parent="1" target="neTEHFY-NGKtXu6BNgQC-69">
          <mxGeometry width="100" height="100" relative="1" as="geometry">
            <mxPoint x="220" y="190" as="sourcePoint" />
            <mxPoint x="580" y="190" as="targetPoint" />
          </mxGeometry>
        </mxCell>
        <mxCell id="neTEHFY-NGKtXu6BNgQC-69" value="Manage" style="shape=rhombus;perimeter=rhombusPerimeter;whiteSpace=wrap;html=1;align=center;fillColor=#dae8fc;strokeColor=#6c8ebf;" vertex="1" parent="1">
          <mxGeometry x="320" y="170" width="65" height="40" as="geometry" />
        </mxCell>
        <mxCell id="neTEHFY-NGKtXu6BNgQC-71" value="" style="edgeStyle=entityRelationEdgeStyle;fontSize=12;html=1;endArrow=ERoneToMany;startArrow=ERoneToMany;rounded=0;exitX=1;exitY=0.5;exitDx=0;exitDy=0;" edge="1" parent="1" source="neTEHFY-NGKtXu6BNgQC-36">
          <mxGeometry width="100" height="100" relative="1" as="geometry">
            <mxPoint x="440" y="340" as="sourcePoint" />
            <mxPoint x="680" y="420" as="targetPoint" />
          </mxGeometry>
        </mxCell>
        <mxCell id="neTEHFY-NGKtXu6BNgQC-73" value="" style="edgeStyle=elbowEdgeStyle;fontSize=12;html=1;endArrow=ERoneToMany;startArrow=ERmandOne;rounded=0;exitX=0.6;exitY=1;exitDx=0;exitDy=0;exitPerimeter=0;entryX=0.5;entryY=0;entryDx=0;entryDy=0;elbow=vertical;" edge="1" parent="1">
          <mxGeometry width="100" height="100" relative="1" as="geometry">
            <mxPoint x="170" y="200" as="sourcePoint" />
            <mxPoint x="725" y="400" as="targetPoint" />
            <Array as="points">
              <mxPoint x="450" y="300" />
              <mxPoint x="180" y="280" />
            </Array>
          </mxGeometry>
        </mxCell>
        <mxCell id="neTEHFY-NGKtXu6BNgQC-74" value="" style="edgeStyle=elbowEdgeStyle;fontSize=12;html=1;endArrow=ERmany;startArrow=ERmany;rounded=0;exitX=0.324;exitY=-0.01;exitDx=0;exitDy=0;exitPerimeter=0;elbow=vertical;" edge="1" parent="1">
          <mxGeometry width="100" height="100" relative="1" as="geometry">
            <mxPoint x="130.0000000000001" y="400" as="sourcePoint" />
            <mxPoint x="147.60000000000002" y="200.4" as="targetPoint" />
            <Array as="points">
              <mxPoint x="157.60000000000002" y="300.4" />
            </Array>
          </mxGeometry>
        </mxCell>
        <mxCell id="neTEHFY-NGKtXu6BNgQC-75" style="edgeStyle=orthogonalEdgeStyle;rounded=0;orthogonalLoop=1;jettySize=auto;html=1;exitX=0.5;exitY=1;exitDx=0;exitDy=0;" edge="1" parent="1" source="neTEHFY-NGKtXu6BNgQC-57" target="neTEHFY-NGKtXu6BNgQC-57">
          <mxGeometry relative="1" as="geometry" />
        </mxCell>
        <mxCell id="neTEHFY-NGKtXu6BNgQC-76" value="" style="edgeStyle=entityRelationEdgeStyle;fontSize=12;html=1;endArrow=ERoneToMany;startArrow=ERoneToMany;rounded=0;exitX=1;exitY=0.75;exitDx=0;exitDy=0;entryX=0;entryY=0.75;entryDx=0;entryDy=0;" edge="1" parent="1" source="neTEHFY-NGKtXu6BNgQC-37" target="neTEHFY-NGKtXu6BNgQC-38">
          <mxGeometry width="100" height="100" relative="1" as="geometry">
            <mxPoint x="950" y="340" as="sourcePoint" />
            <mxPoint x="1050" y="240" as="targetPoint" />
          </mxGeometry>
        </mxCell>
        <mxCell id="neTEHFY-NGKtXu6BNgQC-77" value="" style="edgeStyle=elbowEdgeStyle;fontSize=12;html=1;endArrow=ERzeroToMany;startArrow=ERmandOne;rounded=0;elbow=vertical;" edge="1" parent="1">
          <mxGeometry width="100" height="100" relative="1" as="geometry">
            <mxPoint x="1250" y="200" as="sourcePoint" />
            <mxPoint x="750" y="400" as="targetPoint" />
          </mxGeometry>
        </mxCell>
      </root>
    </mxGraphModel>
  </diagram>
  <diagram id="vNFJ6Ij_RVP5zJbpRlqP" name="Page-4">
    <mxGraphModel dx="1050" dy="566" grid="1" gridSize="10" guides="1" tooltips="1" connect="1" arrows="1" fold="1" page="1" pageScale="1" pageWidth="850" pageHeight="1100" math="0" shadow="0">
      <root>
        <mxCell id="0" />
        <mxCell id="1" parent="0" />
        <mxCell id="-86jS2Yz4MlmfhYaeRan-1" value="International school data base" style="whiteSpace=wrap;html=1;fontSize=18;" vertex="1" parent="1">
          <mxGeometry x="305" y="40" width="265" height="60" as="geometry" />
        </mxCell>
        <mxCell id="-86jS2Yz4MlmfhYaeRan-2" value="Application" style="whiteSpace=wrap;html=1;align=center;fillColor=#f5f5f5;fontColor=#333333;strokeColor=#666666;" vertex="1" parent="1">
          <mxGeometry x="110" y="200" width="100" height="40" as="geometry" />
        </mxCell>
        <mxCell id="-86jS2Yz4MlmfhYaeRan-3" value="Serial number" style="ellipse;whiteSpace=wrap;html=1;align=center;fontStyle=4;fillColor=#fff2cc;strokeColor=#d6b656;" vertex="1" parent="1">
          <mxGeometry x="190" y="130" width="100" height="40" as="geometry" />
        </mxCell>
        <mxCell id="-86jS2Yz4MlmfhYaeRan-4" value="Division" style="ellipse;whiteSpace=wrap;html=1;align=center;fillColor=#fff2cc;strokeColor=#d6b656;" vertex="1" parent="1">
          <mxGeometry x="20" y="130" width="100" height="40" as="geometry" />
        </mxCell>
        <mxCell id="-86jS2Yz4MlmfhYaeRan-5" value="" style="endArrow=none;html=1;rounded=0;exitX=1;exitY=0;exitDx=0;exitDy=0;entryX=0.5;entryY=1;entryDx=0;entryDy=0;" edge="1" parent="1" source="-86jS2Yz4MlmfhYaeRan-2" target="-86jS2Yz4MlmfhYaeRan-3">
          <mxGeometry relative="1" as="geometry">
            <mxPoint x="340" y="290" as="sourcePoint" />
            <mxPoint x="500" y="290" as="targetPoint" />
          </mxGeometry>
        </mxCell>
        <mxCell id="-86jS2Yz4MlmfhYaeRan-6" value="" style="endArrow=none;html=1;rounded=0;exitX=0;exitY=0;exitDx=0;exitDy=0;" edge="1" parent="1" source="-86jS2Yz4MlmfhYaeRan-2">
          <mxGeometry relative="1" as="geometry">
            <mxPoint x="340" y="290" as="sourcePoint" />
            <mxPoint x="80" y="170" as="targetPoint" />
          </mxGeometry>
        </mxCell>
        <mxCell id="-86jS2Yz4MlmfhYaeRan-7" value="Medical report" style="whiteSpace=wrap;html=1;align=center;fillColor=#f5f5f5;fontColor=#333333;strokeColor=#666666;" vertex="1" parent="1">
          <mxGeometry x="570" y="200" width="100" height="40" as="geometry" />
        </mxCell>
        <mxCell id="-86jS2Yz4MlmfhYaeRan-8" value="ID" style="ellipse;whiteSpace=wrap;html=1;align=center;fontStyle=4;fillColor=#fff2cc;strokeColor=#d6b656;" vertex="1" parent="1">
          <mxGeometry x="660" y="150" width="60" height="30" as="geometry" />
        </mxCell>
        <mxCell id="-86jS2Yz4MlmfhYaeRan-9" value="Weight" style="ellipse;whiteSpace=wrap;html=1;align=center;fillColor=#fff2cc;strokeColor=#d6b656;" vertex="1" parent="1">
          <mxGeometry x="580" y="155" width="70" height="25" as="geometry" />
        </mxCell>
        <mxCell id="-86jS2Yz4MlmfhYaeRan-10" value="Lenght" style="ellipse;whiteSpace=wrap;html=1;align=center;fillColor=#fff2cc;strokeColor=#d6b656;" vertex="1" parent="1">
          <mxGeometry x="510" y="155" width="60" height="25" as="geometry" />
        </mxCell>
        <mxCell id="-86jS2Yz4MlmfhYaeRan-11" value="Disease" style="ellipse;whiteSpace=wrap;html=1;align=center;fillColor=#fff2cc;strokeColor=#d6b656;" vertex="1" parent="1">
          <mxGeometry x="700" y="207.5" width="70" height="25" as="geometry" />
        </mxCell>
        <mxCell id="-86jS2Yz4MlmfhYaeRan-12" value="" style="endArrow=none;html=1;rounded=0;exitX=0.5;exitY=1;exitDx=0;exitDy=0;entryX=1;entryY=0;entryDx=0;entryDy=0;" edge="1" parent="1" source="-86jS2Yz4MlmfhYaeRan-8" target="-86jS2Yz4MlmfhYaeRan-7">
          <mxGeometry relative="1" as="geometry">
            <mxPoint x="340" y="290" as="sourcePoint" />
            <mxPoint x="500" y="290" as="targetPoint" />
          </mxGeometry>
        </mxCell>
        <mxCell id="-86jS2Yz4MlmfhYaeRan-13" value="" style="endArrow=none;html=1;rounded=0;exitX=0.5;exitY=1;exitDx=0;exitDy=0;entryX=0.5;entryY=0;entryDx=0;entryDy=0;" edge="1" parent="1" source="-86jS2Yz4MlmfhYaeRan-9" target="-86jS2Yz4MlmfhYaeRan-7">
          <mxGeometry relative="1" as="geometry">
            <mxPoint x="340" y="290" as="sourcePoint" />
            <mxPoint x="500" y="290" as="targetPoint" />
          </mxGeometry>
        </mxCell>
        <mxCell id="-86jS2Yz4MlmfhYaeRan-14" value="" style="endArrow=none;html=1;rounded=0;exitX=0.5;exitY=1;exitDx=0;exitDy=0;entryX=0;entryY=0;entryDx=0;entryDy=0;" edge="1" parent="1" source="-86jS2Yz4MlmfhYaeRan-10" target="-86jS2Yz4MlmfhYaeRan-7">
          <mxGeometry relative="1" as="geometry">
            <mxPoint x="340" y="290" as="sourcePoint" />
            <mxPoint x="580" y="200" as="targetPoint" />
          </mxGeometry>
        </mxCell>
        <mxCell id="-86jS2Yz4MlmfhYaeRan-15" value="" style="endArrow=none;html=1;rounded=0;exitX=0;exitY=0.5;exitDx=0;exitDy=0;entryX=1;entryY=0.5;entryDx=0;entryDy=0;" edge="1" parent="1" source="-86jS2Yz4MlmfhYaeRan-11" target="-86jS2Yz4MlmfhYaeRan-7">
          <mxGeometry relative="1" as="geometry">
            <mxPoint x="340" y="290" as="sourcePoint" />
            <mxPoint x="500" y="290" as="targetPoint" />
          </mxGeometry>
        </mxCell>
        <mxCell id="-86jS2Yz4MlmfhYaeRan-16" value="Student" style="whiteSpace=wrap;html=1;align=center;fillColor=#f5f5f5;fontColor=#333333;strokeColor=#666666;" vertex="1" parent="1">
          <mxGeometry x="110" y="490" width="100" height="40" as="geometry" />
        </mxCell>
        <mxCell id="-86jS2Yz4MlmfhYaeRan-17" value="Serial number" style="ellipse;whiteSpace=wrap;html=1;align=center;fontStyle=4;fillColor=#fff2cc;strokeColor=#d6b656;" vertex="1" parent="1">
          <mxGeometry x="200" y="430" width="100" height="40" as="geometry" />
        </mxCell>
        <mxCell id="-86jS2Yz4MlmfhYaeRan-18" value="Full name" style="ellipse;whiteSpace=wrap;html=1;align=center;fillColor=#fff2cc;strokeColor=#d6b656;" vertex="1" parent="1">
          <mxGeometry x="40" y="450" width="70" height="30" as="geometry" />
        </mxCell>
        <mxCell id="-86jS2Yz4MlmfhYaeRan-19" value="Gender" style="ellipse;whiteSpace=wrap;html=1;align=center;fillColor=#fff2cc;strokeColor=#d6b656;" vertex="1" parent="1">
          <mxGeometry x="30" y="495" width="70" height="30" as="geometry" />
        </mxCell>
        <mxCell id="-86jS2Yz4MlmfhYaeRan-20" value="Certificate" style="ellipse;whiteSpace=wrap;html=1;align=center;fillColor=#fff2cc;strokeColor=#d6b656;" vertex="1" parent="1">
          <mxGeometry x="30" y="550" width="70" height="30" as="geometry" />
        </mxCell>
        <mxCell id="-86jS2Yz4MlmfhYaeRan-22" value="Date of birth" style="ellipse;whiteSpace=wrap;html=1;align=center;fillColor=#fff2cc;strokeColor=#d6b656;" vertex="1" parent="1">
          <mxGeometry x="125" y="560" width="70" height="30" as="geometry" />
        </mxCell>
        <mxCell id="-86jS2Yz4MlmfhYaeRan-23" value="Email" style="ellipse;whiteSpace=wrap;html=1;align=center;fillColor=#fff2cc;strokeColor=#d6b656;" vertex="1" parent="1">
          <mxGeometry x="230" y="490" width="50" height="20" as="geometry" />
        </mxCell>
        <mxCell id="-86jS2Yz4MlmfhYaeRan-24" value="Age" style="ellipse;whiteSpace=wrap;html=1;align=center;dashed=1;fillColor=#fff2cc;strokeColor=#d6b656;" vertex="1" parent="1">
          <mxGeometry x="100" y="539" width="50" height="20" as="geometry" />
        </mxCell>
        <mxCell id="-86jS2Yz4MlmfhYaeRan-25" value="" style="endArrow=none;html=1;rounded=0;exitX=1;exitY=0;exitDx=0;exitDy=0;" edge="1" parent="1" source="-86jS2Yz4MlmfhYaeRan-16">
          <mxGeometry relative="1" as="geometry">
            <mxPoint x="340" y="300" as="sourcePoint" />
            <mxPoint x="240" y="470" as="targetPoint" />
          </mxGeometry>
        </mxCell>
        <mxCell id="-86jS2Yz4MlmfhYaeRan-26" value="" style="endArrow=none;html=1;rounded=0;exitX=1;exitY=0.5;exitDx=0;exitDy=0;" edge="1" parent="1" source="-86jS2Yz4MlmfhYaeRan-16">
          <mxGeometry relative="1" as="geometry">
            <mxPoint x="220" y="500" as="sourcePoint" />
            <mxPoint x="230" y="500" as="targetPoint" />
          </mxGeometry>
        </mxCell>
        <mxCell id="-86jS2Yz4MlmfhYaeRan-27" value="" style="endArrow=none;html=1;rounded=0;exitX=0;exitY=0;exitDx=0;exitDy=0;entryX=1;entryY=1;entryDx=0;entryDy=0;" edge="1" parent="1" source="-86jS2Yz4MlmfhYaeRan-16" target="-86jS2Yz4MlmfhYaeRan-18">
          <mxGeometry relative="1" as="geometry">
            <mxPoint x="230" y="510" as="sourcePoint" />
            <mxPoint x="260" y="490" as="targetPoint" />
          </mxGeometry>
        </mxCell>
        <mxCell id="-86jS2Yz4MlmfhYaeRan-28" value="" style="endArrow=none;html=1;rounded=0;exitX=1;exitY=0.5;exitDx=0;exitDy=0;entryX=0;entryY=0.5;entryDx=0;entryDy=0;" edge="1" parent="1" source="-86jS2Yz4MlmfhYaeRan-19" target="-86jS2Yz4MlmfhYaeRan-16">
          <mxGeometry relative="1" as="geometry">
            <mxPoint x="240" y="520" as="sourcePoint" />
            <mxPoint x="270" y="500" as="targetPoint" />
          </mxGeometry>
        </mxCell>
        <mxCell id="-86jS2Yz4MlmfhYaeRan-29" value="" style="endArrow=none;html=1;rounded=0;exitX=0.691;exitY=0.053;exitDx=0;exitDy=0;exitPerimeter=0;entryX=0;entryY=1;entryDx=0;entryDy=0;" edge="1" parent="1" source="-86jS2Yz4MlmfhYaeRan-20" target="-86jS2Yz4MlmfhYaeRan-16">
          <mxGeometry relative="1" as="geometry">
            <mxPoint x="250" y="530" as="sourcePoint" />
            <mxPoint x="280" y="510" as="targetPoint" />
          </mxGeometry>
        </mxCell>
        <mxCell id="-86jS2Yz4MlmfhYaeRan-30" value="" style="endArrow=none;html=1;rounded=0;exitX=0.5;exitY=0;exitDx=0;exitDy=0;entryX=0.5;entryY=1;entryDx=0;entryDy=0;" edge="1" parent="1" source="-86jS2Yz4MlmfhYaeRan-22" target="-86jS2Yz4MlmfhYaeRan-16">
          <mxGeometry relative="1" as="geometry">
            <mxPoint x="260" y="540" as="sourcePoint" />
            <mxPoint x="290" y="520" as="targetPoint" />
          </mxGeometry>
        </mxCell>
        <mxCell id="-86jS2Yz4MlmfhYaeRan-31" value="" style="endArrow=none;html=1;rounded=0;exitX=0.5;exitY=0;exitDx=0;exitDy=0;entryX=0.25;entryY=1;entryDx=0;entryDy=0;" edge="1" parent="1" source="-86jS2Yz4MlmfhYaeRan-24" target="-86jS2Yz4MlmfhYaeRan-16">
          <mxGeometry relative="1" as="geometry">
            <mxPoint x="270" y="550" as="sourcePoint" />
            <mxPoint x="300" y="530" as="targetPoint" />
          </mxGeometry>
        </mxCell>
        <mxCell id="-86jS2Yz4MlmfhYaeRan-33" value="Parents" style="whiteSpace=wrap;html=1;align=center;fillColor=#f5f5f5;fontColor=#333333;strokeColor=#666666;" vertex="1" parent="1">
          <mxGeometry x="640" y="480" width="100" height="50" as="geometry" />
        </mxCell>
        <mxCell id="-86jS2Yz4MlmfhYaeRan-34" value="Parent ID" style="ellipse;whiteSpace=wrap;html=1;align=center;fontStyle=4;fillColor=#fff2cc;strokeColor=#d6b656;" vertex="1" parent="1">
          <mxGeometry x="730" y="420" width="80" height="40" as="geometry" />
        </mxCell>
        <mxCell id="-86jS2Yz4MlmfhYaeRan-35" value="Name" style="ellipse;whiteSpace=wrap;html=1;align=center;fillColor=#fff2cc;strokeColor=#d6b656;" vertex="1" parent="1">
          <mxGeometry x="770" y="470" width="50" height="30" as="geometry" />
        </mxCell>
        <mxCell id="-86jS2Yz4MlmfhYaeRan-36" value="Relation ship" style="ellipse;whiteSpace=wrap;html=1;align=center;fillColor=#fff2cc;strokeColor=#d6b656;" vertex="1" parent="1">
          <mxGeometry x="760" y="530" width="60" height="30" as="geometry" />
        </mxCell>
        <mxCell id="-86jS2Yz4MlmfhYaeRan-37" value="" style="endArrow=none;html=1;rounded=0;exitX=1;exitY=0;exitDx=0;exitDy=0;entryX=0.26;entryY=0.91;entryDx=0;entryDy=0;entryPerimeter=0;" edge="1" parent="1" source="-86jS2Yz4MlmfhYaeRan-33" target="-86jS2Yz4MlmfhYaeRan-34">
          <mxGeometry relative="1" as="geometry">
            <mxPoint x="340" y="300" as="sourcePoint" />
            <mxPoint x="500" y="300" as="targetPoint" />
          </mxGeometry>
        </mxCell>
        <mxCell id="-86jS2Yz4MlmfhYaeRan-38" value="" style="endArrow=none;html=1;rounded=0;exitX=1;exitY=0.5;exitDx=0;exitDy=0;entryX=0;entryY=0.5;entryDx=0;entryDy=0;" edge="1" parent="1" source="-86jS2Yz4MlmfhYaeRan-33" target="-86jS2Yz4MlmfhYaeRan-35">
          <mxGeometry relative="1" as="geometry">
            <mxPoint x="750" y="490" as="sourcePoint" />
            <mxPoint x="761" y="466" as="targetPoint" />
          </mxGeometry>
        </mxCell>
        <mxCell id="-86jS2Yz4MlmfhYaeRan-39" value="" style="endArrow=none;html=1;rounded=0;exitX=1;exitY=1;exitDx=0;exitDy=0;entryX=0;entryY=0.5;entryDx=0;entryDy=0;" edge="1" parent="1" source="-86jS2Yz4MlmfhYaeRan-33" target="-86jS2Yz4MlmfhYaeRan-36">
          <mxGeometry relative="1" as="geometry">
            <mxPoint x="760" y="500" as="sourcePoint" />
            <mxPoint x="771" y="476" as="targetPoint" />
          </mxGeometry>
        </mxCell>
        <mxCell id="-86jS2Yz4MlmfhYaeRan-40" value="Teatcher" style="whiteSpace=wrap;html=1;align=center;fillColor=#f5f5f5;fontColor=#333333;strokeColor=#666666;" vertex="1" parent="1">
          <mxGeometry x="1150" y="320" width="100" height="40" as="geometry" />
        </mxCell>
        <mxCell id="-86jS2Yz4MlmfhYaeRan-41" value="Teacher ID" style="ellipse;whiteSpace=wrap;html=1;align=center;fontStyle=4;fillColor=#fff2cc;strokeColor=#d6b656;" vertex="1" parent="1">
          <mxGeometry x="1220" y="270" width="100" height="30" as="geometry" />
        </mxCell>
        <mxCell id="-86jS2Yz4MlmfhYaeRan-42" value="Name" style="ellipse;whiteSpace=wrap;html=1;align=center;fillColor=#fff2cc;strokeColor=#d6b656;" vertex="1" parent="1">
          <mxGeometry x="1275" y="310" width="65" height="30" as="geometry" />
        </mxCell>
        <mxCell id="-86jS2Yz4MlmfhYaeRan-44" value="Subject" style="ellipse;whiteSpace=wrap;html=1;align=center;fillColor=#fff2cc;strokeColor=#d6b656;" vertex="1" parent="1">
          <mxGeometry x="1275" y="350" width="65" height="30" as="geometry" />
        </mxCell>
        <mxCell id="-86jS2Yz4MlmfhYaeRan-45" value="Monthly salary" style="ellipse;whiteSpace=wrap;html=1;align=center;fillColor=#fff2cc;strokeColor=#d6b656;" vertex="1" parent="1">
          <mxGeometry x="1220" y="400" width="65" height="30" as="geometry" />
        </mxCell>
        <mxCell id="-86jS2Yz4MlmfhYaeRan-46" value="Phone" style="ellipse;whiteSpace=wrap;html=1;align=center;fillColor=#fff2cc;strokeColor=#d6b656;" vertex="1" parent="1">
          <mxGeometry x="1050" y="350" width="65" height="30" as="geometry" />
        </mxCell>
        <mxCell id="-86jS2Yz4MlmfhYaeRan-47" value="Email" style="ellipse;whiteSpace=wrap;html=1;align=center;fillColor=#fff2cc;strokeColor=#d6b656;" vertex="1" parent="1">
          <mxGeometry x="1050" y="290" width="65" height="30" as="geometry" />
        </mxCell>
        <mxCell id="-86jS2Yz4MlmfhYaeRan-48" value="" style="endArrow=none;html=1;rounded=0;exitX=0.972;exitY=0.8;exitDx=0;exitDy=0;exitPerimeter=0;entryX=0;entryY=0.25;entryDx=0;entryDy=0;" edge="1" parent="1" source="-86jS2Yz4MlmfhYaeRan-47" target="-86jS2Yz4MlmfhYaeRan-40">
          <mxGeometry relative="1" as="geometry">
            <mxPoint x="1190" y="300" as="sourcePoint" />
            <mxPoint x="1350" y="300" as="targetPoint" />
          </mxGeometry>
        </mxCell>
        <mxCell id="-86jS2Yz4MlmfhYaeRan-49" value="" style="endArrow=none;html=1;rounded=0;exitX=1;exitY=0.5;exitDx=0;exitDy=0;entryX=0;entryY=0.75;entryDx=0;entryDy=0;" edge="1" parent="1" source="-86jS2Yz4MlmfhYaeRan-46" target="-86jS2Yz4MlmfhYaeRan-40">
          <mxGeometry relative="1" as="geometry">
            <mxPoint x="1123" y="324" as="sourcePoint" />
            <mxPoint x="1160" y="340" as="targetPoint" />
          </mxGeometry>
        </mxCell>
        <mxCell id="-86jS2Yz4MlmfhYaeRan-50" value="" style="endArrow=none;html=1;rounded=0;exitX=1;exitY=0;exitDx=0;exitDy=0;entryX=0.5;entryY=1;entryDx=0;entryDy=0;" edge="1" parent="1" source="-86jS2Yz4MlmfhYaeRan-40" target="-86jS2Yz4MlmfhYaeRan-41">
          <mxGeometry relative="1" as="geometry">
            <mxPoint x="1133" y="334" as="sourcePoint" />
            <mxPoint x="1252" y="304" as="targetPoint" />
          </mxGeometry>
        </mxCell>
        <mxCell id="-86jS2Yz4MlmfhYaeRan-51" value="" style="endArrow=none;html=1;rounded=0;" edge="1" parent="1" source="-86jS2Yz4MlmfhYaeRan-40">
          <mxGeometry relative="1" as="geometry">
            <mxPoint x="1143" y="344" as="sourcePoint" />
            <mxPoint x="1280" y="330" as="targetPoint" />
          </mxGeometry>
        </mxCell>
        <mxCell id="-86jS2Yz4MlmfhYaeRan-53" value="" style="endArrow=none;html=1;rounded=0;entryX=0;entryY=0.5;entryDx=0;entryDy=0;" edge="1" parent="1" target="-86jS2Yz4MlmfhYaeRan-44">
          <mxGeometry relative="1" as="geometry">
            <mxPoint x="1250" y="360" as="sourcePoint" />
            <mxPoint x="1190" y="370" as="targetPoint" />
          </mxGeometry>
        </mxCell>
        <mxCell id="-86jS2Yz4MlmfhYaeRan-54" value="" style="endArrow=none;html=1;rounded=0;exitX=0.896;exitY=1.05;exitDx=0;exitDy=0;exitPerimeter=0;entryX=0.5;entryY=0;entryDx=0;entryDy=0;" edge="1" parent="1" source="-86jS2Yz4MlmfhYaeRan-40" target="-86jS2Yz4MlmfhYaeRan-45">
          <mxGeometry relative="1" as="geometry">
            <mxPoint x="1163" y="364" as="sourcePoint" />
            <mxPoint x="1200" y="380" as="targetPoint" />
          </mxGeometry>
        </mxCell>
        <mxCell id="-86jS2Yz4MlmfhYaeRan-55" value="Class" style="whiteSpace=wrap;html=1;align=center;fillColor=#f5f5f5;fontColor=#333333;strokeColor=#666666;" vertex="1" parent="1">
          <mxGeometry x="660" y="760" width="100" height="40" as="geometry" />
        </mxCell>
        <mxCell id="-86jS2Yz4MlmfhYaeRan-56" value="Name class" style="ellipse;whiteSpace=wrap;html=1;align=center;fontStyle=4;fillColor=#fff2cc;strokeColor=#d6b656;" vertex="1" parent="1">
          <mxGeometry x="790" y="720" width="100" height="40" as="geometry" />
        </mxCell>
        <mxCell id="-86jS2Yz4MlmfhYaeRan-57" value="Capacity" style="ellipse;whiteSpace=wrap;html=1;align=center;fillColor=#fff2cc;strokeColor=#d6b656;" vertex="1" parent="1">
          <mxGeometry x="800" y="770" width="60" height="30" as="geometry" />
        </mxCell>
        <mxCell id="-86jS2Yz4MlmfhYaeRan-58" value="Attend schedule" style="ellipse;whiteSpace=wrap;html=1;align=center;fillColor=#fff2cc;strokeColor=#d6b656;" vertex="1" parent="1">
          <mxGeometry x="790" y="830" width="80" height="30" as="geometry" />
        </mxCell>
        <mxCell id="-86jS2Yz4MlmfhYaeRan-59" value="Location" style="ellipse;whiteSpace=wrap;html=1;align=center;fillColor=#fff2cc;strokeColor=#d6b656;" vertex="1" parent="1">
          <mxGeometry x="680" y="820" width="70" height="30" as="geometry" />
        </mxCell>
        <mxCell id="-86jS2Yz4MlmfhYaeRan-60" value="Building no" style="ellipse;whiteSpace=wrap;html=1;align=center;fillColor=#fff2cc;strokeColor=#d6b656;" vertex="1" parent="1">
          <mxGeometry x="630" y="870" width="60" height="30" as="geometry" />
        </mxCell>
        <mxCell id="-86jS2Yz4MlmfhYaeRan-61" value="Floor no" style="ellipse;whiteSpace=wrap;html=1;align=center;fillColor=#fff2cc;strokeColor=#d6b656;" vertex="1" parent="1">
          <mxGeometry x="730" y="870" width="60" height="30" as="geometry" />
        </mxCell>
        <mxCell id="-86jS2Yz4MlmfhYaeRan-62" value="" style="endArrow=none;html=1;rounded=0;exitX=1;exitY=0;exitDx=0;exitDy=0;entryX=0.008;entryY=0.69;entryDx=0;entryDy=0;entryPerimeter=0;" edge="1" parent="1" source="-86jS2Yz4MlmfhYaeRan-55" target="-86jS2Yz4MlmfhYaeRan-56">
          <mxGeometry relative="1" as="geometry">
            <mxPoint x="680" y="700" as="sourcePoint" />
            <mxPoint x="840" y="700" as="targetPoint" />
          </mxGeometry>
        </mxCell>
        <mxCell id="-86jS2Yz4MlmfhYaeRan-63" value="" style="endArrow=none;html=1;rounded=0;exitX=1;exitY=0.75;exitDx=0;exitDy=0;entryX=0;entryY=0.5;entryDx=0;entryDy=0;" edge="1" parent="1" source="-86jS2Yz4MlmfhYaeRan-55" target="-86jS2Yz4MlmfhYaeRan-57">
          <mxGeometry relative="1" as="geometry">
            <mxPoint x="770" y="770" as="sourcePoint" />
            <mxPoint x="801" y="758" as="targetPoint" />
          </mxGeometry>
        </mxCell>
        <mxCell id="-86jS2Yz4MlmfhYaeRan-64" value="" style="endArrow=none;html=1;rounded=0;exitX=1;exitY=1;exitDx=0;exitDy=0;entryX=0.21;entryY=-0.08;entryDx=0;entryDy=0;entryPerimeter=0;" edge="1" parent="1" source="-86jS2Yz4MlmfhYaeRan-55" target="-86jS2Yz4MlmfhYaeRan-58">
          <mxGeometry relative="1" as="geometry">
            <mxPoint x="780" y="780" as="sourcePoint" />
            <mxPoint x="811" y="768" as="targetPoint" />
          </mxGeometry>
        </mxCell>
        <mxCell id="-86jS2Yz4MlmfhYaeRan-65" value="" style="endArrow=none;html=1;rounded=0;exitX=0.5;exitY=0;exitDx=0;exitDy=0;entryX=0.5;entryY=1;entryDx=0;entryDy=0;" edge="1" parent="1" source="-86jS2Yz4MlmfhYaeRan-59" target="-86jS2Yz4MlmfhYaeRan-55">
          <mxGeometry relative="1" as="geometry">
            <mxPoint x="790" y="790" as="sourcePoint" />
            <mxPoint x="821" y="778" as="targetPoint" />
          </mxGeometry>
        </mxCell>
        <mxCell id="-86jS2Yz4MlmfhYaeRan-66" value="" style="endArrow=none;html=1;rounded=0;exitX=0.747;exitY=-0.027;exitDx=0;exitDy=0;exitPerimeter=0;" edge="1" parent="1" source="-86jS2Yz4MlmfhYaeRan-60">
          <mxGeometry relative="1" as="geometry">
            <mxPoint x="800" y="800" as="sourcePoint" />
            <mxPoint x="700" y="850" as="targetPoint" />
          </mxGeometry>
        </mxCell>
        <mxCell id="-86jS2Yz4MlmfhYaeRan-67" value="" style="endArrow=none;html=1;rounded=0;entryX=1;entryY=1;entryDx=0;entryDy=0;exitX=0.5;exitY=0;exitDx=0;exitDy=0;" edge="1" parent="1" source="-86jS2Yz4MlmfhYaeRan-61" target="-86jS2Yz4MlmfhYaeRan-59">
          <mxGeometry relative="1" as="geometry">
            <mxPoint x="760" y="860" as="sourcePoint" />
            <mxPoint x="841" y="798" as="targetPoint" />
          </mxGeometry>
        </mxCell>
        <mxCell id="-86jS2Yz4MlmfhYaeRan-69" value="Sibling" style="whiteSpace=wrap;html=1;align=center;fillColor=#f5f5f5;fontColor=#333333;strokeColor=#666666;" vertex="1" parent="1">
          <mxGeometry x="130" y="760" width="100" height="40" as="geometry" />
        </mxCell>
        <mxCell id="-86jS2Yz4MlmfhYaeRan-70" value="ID" style="ellipse;whiteSpace=wrap;html=1;align=center;fontStyle=4;fillColor=#fff2cc;strokeColor=#d6b656;" vertex="1" parent="1">
          <mxGeometry x="35" y="725" width="60" height="30" as="geometry" />
        </mxCell>
        <mxCell id="-86jS2Yz4MlmfhYaeRan-71" value="Discount sibling" style="ellipse;whiteSpace=wrap;html=1;align=center;fillColor=#fff2cc;strokeColor=#d6b656;" vertex="1" parent="1">
          <mxGeometry x="30" y="820" width="80" height="30" as="geometry" />
        </mxCell>
        <mxCell id="-86jS2Yz4MlmfhYaeRan-72" value="" style="endArrow=none;html=1;rounded=0;exitX=0.97;exitY=0.807;exitDx=0;exitDy=0;exitPerimeter=0;entryX=0;entryY=0;entryDx=0;entryDy=0;" edge="1" parent="1" source="-86jS2Yz4MlmfhYaeRan-70" target="-86jS2Yz4MlmfhYaeRan-69">
          <mxGeometry relative="1" as="geometry">
            <mxPoint x="440" y="770" as="sourcePoint" />
            <mxPoint x="600" y="770" as="targetPoint" />
          </mxGeometry>
        </mxCell>
        <mxCell id="-86jS2Yz4MlmfhYaeRan-74" value="" style="endArrow=none;html=1;rounded=0;entryX=0;entryY=1;entryDx=0;entryDy=0;" edge="1" parent="1" source="-86jS2Yz4MlmfhYaeRan-71" target="-86jS2Yz4MlmfhYaeRan-69">
          <mxGeometry relative="1" as="geometry">
            <mxPoint x="103" y="759" as="sourcePoint" />
            <mxPoint x="140" y="770" as="targetPoint" />
          </mxGeometry>
        </mxCell>
        <mxCell id="-86jS2Yz4MlmfhYaeRan-75" value="" style="edgeStyle=elbowEdgeStyle;fontSize=12;html=1;endArrow=ERzeroToOne;startArrow=ERmandOne;rounded=0;exitX=0.75;exitY=1;exitDx=0;exitDy=0;elbow=vertical;" edge="1" parent="1">
          <mxGeometry width="100" height="100" relative="1" as="geometry">
            <mxPoint x="175" y="240" as="sourcePoint" />
            <mxPoint x="130" y="490" as="targetPoint" />
          </mxGeometry>
        </mxCell>
        <mxCell id="-86jS2Yz4MlmfhYaeRan-76" value="" style="edgeStyle=elbowEdgeStyle;fontSize=12;html=1;endArrow=ERoneToMany;startArrow=ERzeroToOne;rounded=0;elbow=vertical;exitX=0.25;exitY=1;exitDx=0;exitDy=0;" edge="1" parent="1">
          <mxGeometry width="100" height="100" relative="1" as="geometry">
            <mxPoint x="605" y="240" as="sourcePoint" />
            <mxPoint x="180" y="490" as="targetPoint" />
          </mxGeometry>
        </mxCell>
        <mxCell id="-86jS2Yz4MlmfhYaeRan-78" value="" style="fontSize=12;html=1;endArrow=ERoneToMany;startArrow=ERmandOne;rounded=0;entryX=1;entryY=0.75;entryDx=0;entryDy=0;" edge="1" parent="1" target="-86jS2Yz4MlmfhYaeRan-16">
          <mxGeometry width="100" height="100" relative="1" as="geometry">
            <mxPoint x="640" y="520" as="sourcePoint" />
            <mxPoint x="520" y="350" as="targetPoint" />
          </mxGeometry>
        </mxCell>
        <mxCell id="-86jS2Yz4MlmfhYaeRan-80" value="" style="edgeStyle=elbowEdgeStyle;fontSize=12;html=1;endArrow=ERmany;startArrow=ERmany;rounded=0;elbow=vertical;" edge="1" parent="1">
          <mxGeometry width="100" height="100" relative="1" as="geometry">
            <mxPoint x="160" y="755" as="sourcePoint" />
            <mxPoint x="200" y="534" as="targetPoint" />
          </mxGeometry>
        </mxCell>
        <mxCell id="-86jS2Yz4MlmfhYaeRan-81" value="" style="fontSize=12;html=1;endArrow=ERoneToMany;startArrow=ERmandOne;rounded=0;entryX=1;entryY=1;entryDx=0;entryDy=0;exitX=0;exitY=0;exitDx=0;exitDy=0;" edge="1" parent="1" source="-86jS2Yz4MlmfhYaeRan-55" target="-86jS2Yz4MlmfhYaeRan-16">
          <mxGeometry width="100" height="100" relative="1" as="geometry">
            <mxPoint x="650" y="530" as="sourcePoint" />
            <mxPoint x="220" y="530" as="targetPoint" />
          </mxGeometry>
        </mxCell>
        <mxCell id="-86jS2Yz4MlmfhYaeRan-82" value="" style="fontSize=12;html=1;endArrow=ERoneToMany;startArrow=ERoneToMany;rounded=0;entryX=0.25;entryY=1;entryDx=0;entryDy=0;exitX=0.588;exitY=-0.03;exitDx=0;exitDy=0;exitPerimeter=0;edgeStyle=elbowEdgeStyle;elbow=vertical;" edge="1" parent="1" source="-86jS2Yz4MlmfhYaeRan-55" target="-86jS2Yz4MlmfhYaeRan-40">
          <mxGeometry width="100" height="100" relative="1" as="geometry">
            <mxPoint x="880" y="610" as="sourcePoint" />
            <mxPoint x="980" y="510" as="targetPoint" />
            <Array as="points">
              <mxPoint x="960" y="580" />
            </Array>
          </mxGeometry>
        </mxCell>
        <mxCell id="-86jS2Yz4MlmfhYaeRan-84" value="Sub Head" style="shape=rhombus;perimeter=rhombusPerimeter;whiteSpace=wrap;html=1;align=center;fillColor=#dae8fc;strokeColor=#6c8ebf;" vertex="1" parent="1">
          <mxGeometry x="1130" y="160" width="90" height="60" as="geometry" />
        </mxCell>
        <mxCell id="i7WxpLCpNsAHCiN8fddr-1" value="" style="endArrow=none;html=1;rounded=0;entryX=0;entryY=0.5;entryDx=0;entryDy=0;exitX=0.384;exitY=-0.09;exitDx=0;exitDy=0;exitPerimeter=0;" edge="1" parent="1" source="-86jS2Yz4MlmfhYaeRan-40" target="-86jS2Yz4MlmfhYaeRan-84">
          <mxGeometry relative="1" as="geometry">
            <mxPoint x="1180" y="310" as="sourcePoint" />
            <mxPoint x="1020" y="200" as="targetPoint" />
          </mxGeometry>
        </mxCell>
        <mxCell id="i7WxpLCpNsAHCiN8fddr-2" value="1" style="resizable=0;html=1;whiteSpace=wrap;align=right;verticalAlign=bottom;" connectable="0" vertex="1" parent="i7WxpLCpNsAHCiN8fddr-1">
          <mxGeometry x="1" relative="1" as="geometry" />
        </mxCell>
        <mxCell id="i7WxpLCpNsAHCiN8fddr-3" value="" style="endArrow=none;html=1;rounded=0;" edge="1" parent="1">
          <mxGeometry relative="1" as="geometry">
            <mxPoint x="1190" y="320" as="sourcePoint" />
            <mxPoint x="1220" y="190" as="targetPoint" />
          </mxGeometry>
        </mxCell>
        <mxCell id="i7WxpLCpNsAHCiN8fddr-4" value="N" style="resizable=0;html=1;whiteSpace=wrap;align=right;verticalAlign=bottom;" connectable="0" vertex="1" parent="i7WxpLCpNsAHCiN8fddr-3">
          <mxGeometry x="1" relative="1" as="geometry" />
        </mxCell>
      </root>
    </mxGraphModel>
  </diagram>
</mxfile>
